<svg height="477.60001pt" viewBox="0 0 477.60001 477.60001" width="477.60001pt" xmlns="http://www.w3.org/2000/svg"><path d="m477.601562 238.800781c0 131.886719-106.914062 238.800781-238.800781 238.800781s-238.800781-106.914062-238.800781-238.800781 106.914062-238.800781 238.800781-238.800781 238.800781 106.914062 238.800781 238.800781zm0 0" fill="#382b73"/><path d="m445.398438 238.800781c0 114.101563-92.496094 206.597657-206.597657 206.597657-114.101562 0-206.597656-92.496094-206.597656-206.597657 0-114.101562 92.496094-206.597656 206.597656-206.597656 114.101563 0 206.597657 92.496094 206.597657 206.597656zm0 0" fill="#473080"/><path d="m370.222656 165.726562h-.648437v-18.445312c0-3.179688-2.574219-5.757812-5.753907-5.757812h-101.191406c-3.941406 0-7.648437.996093-10.894531 2.742187v-16.246094c0-7.144531-5.789063-12.933593-12.933594-12.933593s-12.9375 5.789062-12.9375 12.933593v15.464844c-2.839843-1.25-5.972656-1.957031-9.273437-1.957031h-95.308594c-6.429688 0-11.640625 5.207031-11.640625 11.636718v12.5625h-2.261719c-6.429687 0-11.640625 5.210938-11.640625 11.640626v173.125c0 6.429687 5.210938 11.640624 11.640625 11.640624h262.84375c6.425782 0 11.636719-5.210937 11.636719-11.640624v-173.125c0-6.425782-5.210937-11.640626-11.636719-11.640626zm0 0" fill="#382b73"/><path d="m370.222656 348.132812h-262.84375c-6.429687 0-11.640625-5.207031-11.640625-11.636718v-169.25c0-6.429688 5.210938-11.636719 11.640625-11.636719h262.84375c6.425782 0 11.636719 5.207031 11.636719 11.636719v169.246094c0 6.429687-5.210937 11.640624-11.636719 11.640624zm0 0" fill="#a72973"/><path d="m370.222656 344.253906h-262.84375c-6.429687 0-11.640625-5.210937-11.640625-11.636718v-169.25c0-6.425782 5.210938-11.636719 11.640625-11.636719h262.84375c6.425782 0 11.636719 5.210937 11.636719 11.636719v169.25c0 6.425781-5.210937 11.636718-11.636719 11.636718zm0 0" fill="#ef5a9d"/><path d="m239.609375 331.828125h-119.96875c-5.519531 0-10-4.476563-10-10v-29.949219h129.96875zm0 0" fill="#d1d3d4"/><path d="m239.609375 321.480469h-119.96875c-5.519531 0-10-4.476563-10-10v-29.945313h129.96875zm0 0" fill="#e6e7e8"/><path d="m239.609375 331.828125h119.964844c5.523437 0 10-4.476563 10-10v-29.949219h-129.964844zm0 0" fill="#bcbec0"/><path d="m239.609375 321.480469h119.964844c5.523437 0 10-4.476563 10-10v-29.945313h-129.964844zm0 0" fill="#d1d3d4"/><path d="m216.589844 127.527344h-96.949219c-5.519531 0-10 4.476562-10 10v161.28125c0 5.519531 4.480469 10 10 10h96.949219c12.710937 0 23.019531 10.304687 23.019531 23.019531v-181.28125c0-12.714844-10.308594-23.019531-23.019531-23.019531zm0 0" fill="#fff"/><path d="m359.574219 127.527344h-96.945313c-12.714844 0-23.019531 10.304687-23.019531 23.019531v181.28125c0-12.714844 10.304687-23.019531 23.019531-23.019531h96.945313c5.523437 0 10-4.480469 10-10v-161.28125c0-5.523438-4.476563-10-10-10zm0 0" fill="#e6e7e8"/><g fill="#d1d3d4"><path d="m195.183594 173.390625h-62.457032c-3.214843 0-5.820312-2.605469-5.820312-5.820313 0-3.214843 2.605469-5.820312 5.820312-5.820312h62.457032c3.214844 0 5.820312 2.605469 5.820312 5.820312 0 3.214844-2.605468 5.820313-5.820312 5.820313zm0 0"/><path d="m195.183594 201.195312h-62.457032c-3.214843 0-5.820312-2.605468-5.820312-5.820312s2.605469-5.820312 5.820312-5.820312h62.457032c3.214844 0 5.820312 2.605468 5.820312 5.820312s-2.605468 5.820312-5.820312 5.820312zm0 0"/><path d="m195.183594 228.996094h-62.457032c-3.214843 0-5.820312-2.605469-5.820312-5.816406 0-3.214844 2.605469-5.820313 5.820312-5.820313h62.457032c3.214844 0 5.820312 2.605469 5.820312 5.820313 0 3.210937-2.605468 5.816406-5.820312 5.816406zm0 0"/><path d="m195.183594 256.800781h-62.457032c-3.214843 0-5.820312-2.605469-5.820312-5.820312 0-3.214844 2.605469-5.820313 5.820312-5.820313h62.457032c3.214844 0 5.820312 2.605469 5.820312 5.820313 0 3.214843-2.605468 5.820312-5.820312 5.820312zm0 0"/><path d="m195.183594 284.605469h-62.457032c-3.214843 0-5.820312-2.609375-5.820312-5.820313 0-3.214844 2.605469-5.820312 5.820312-5.820312h62.457032c3.214844 0 5.820312 2.605468 5.820312 5.820312s-2.605468 5.820313-5.820312 5.820313zm0 0"/><path d="m344.875 173.390625h-62.460938c-3.210937 0-5.816406-2.605469-5.816406-5.820313 0-3.214843 2.605469-5.820312 5.816406-5.820312h62.460938c3.214844 0 5.820312 2.605469 5.820312 5.820312-.003906 3.214844-2.605468 5.820313-5.820312 5.820313zm0 0"/><path d="m344.875 201.195312h-62.460938c-3.210937 0-5.816406-2.605468-5.816406-5.820312s2.605469-5.820312 5.816406-5.820312h62.460938c3.214844 0 5.820312 2.605468 5.820312 5.820312-.003906 3.214844-2.605468 5.820312-5.820312 5.820312zm0 0"/><path d="m344.875 228.996094h-62.460938c-3.210937 0-5.816406-2.605469-5.816406-5.816406 0-3.214844 2.605469-5.820313 5.816406-5.820313h62.460938c3.214844 0 5.820312 2.605469 5.820312 5.820313-.003906 3.210937-2.605468 5.816406-5.820312 5.816406zm0 0"/><path d="m344.875 256.800781h-62.460938c-3.210937 0-5.816406-2.605469-5.816406-5.820312 0-3.214844 2.605469-5.820313 5.816406-5.820313h62.460938c3.214844 0 5.820312 2.605469 5.820312 5.820313-.003906 3.214843-2.605468 5.820312-5.820312 5.820312zm0 0"/><path d="m344.875 284.605469h-62.460938c-3.210937 0-5.816406-2.609375-5.816406-5.820313 0-3.214844 2.605469-5.820312 5.816406-5.820312h62.460938c3.214844 0 5.820312 2.605468 5.820312 5.820312-.003906 3.214844-2.605468 5.820313-5.820312 5.820313zm0 0"/><path d="m238.800781 108.84375c-7.144531 0-12.9375 5.792969-12.9375 12.9375v16.277344h6.949219-6.949219v118.863281h6.949219-6.949219l7.589844 13.574219 3.753906 6.707031c.695313 1.246094 2.488281 1.246094 3.1875 0l11.339844-20.28125h-6.949219 6.949219v-135.140625c0-7.144531-5.789063-12.9375-12.933594-12.9375zm0 0"/></g><path d="m225.863281 120.007812h25.871094v10.292969h-25.871094zm0 0" fill="#fede3a"/><path d="m233.015625 120.007812h11.566406v10.292969h-11.566406zm0 0" fill="#fff335"/><path d="m238.800781 101.085938c-7.144531 0-12.9375 5.789062-12.9375 12.933593v5.988281h25.871094v-5.988281c0-7.144531-5.789063-12.933593-12.933594-12.933593zm0 0" fill="#1caee4"/><path d="m238.800781 101.085938c-3.308593 0-5.988281 2.679687-5.988281 5.984374v12.9375h11.976562v-12.9375c-.003906-3.304687-2.683593-5.984374-5.988281-5.984374zm0 0" fill="#27c1e6"/><path d="m251.734375 249.164062h-25.871094l11.34375 20.28125c.695313 1.246094 2.488281 1.246094 3.1875 0zm0 0" fill="#e6e7e8"/><path d="m239.261719 270.320312c.453125-.113281.871093-.410156 1.132812-.875-.261719.46875-.679687.761719-1.132812.875zm0 0" fill="#ef5a9d"/><path d="m238.339844 270.320312c-.304688-.078124-.589844-.230468-.824219-.464843.230469.234375.519531.386719.824219.464843zm0 0" fill="#ef5a9d"/><path d="m225.863281 130.300781h25.871094v118.859375h-25.871094zm0 0" fill="#ef5a9d"/><path d="m232.8125 130.300781h11.976562v118.859375h-11.976562zm0 0" fill="#f06ea9"/><path d="m244.785156 249.164062h-11.972656l5.25 20.28125c.320312 1.246094 1.152344 1.246094 1.476562 0zm0 0" fill="#fff"/><path d="m233.453125 262.734375 3.753906 6.710937c.695313 1.246094 2.488281 1.246094 3.1875 0l3.75-6.710937zm0 0" fill="#ef5a9d"/></svg>