<svg width="81" height="81" viewBox="0 0 81 81" fill="none" xmlns="http://www.w3.org/2000/svg">
<path d="M31.7648 65.5594C32.9531 65.5594 33.9164 64.5961 33.9164 63.4079C33.9164 62.2196 32.9531 61.2563 31.7648 61.2563C30.5766 61.2563 29.6133 62.2196 29.6133 63.4079C29.6133 64.5961 30.5766 65.5594 31.7648 65.5594Z" fill="#E9DEEF"/>
<path d="M72.2648 34.6782H46.6992V49.1063H72.2648V34.6782Z" fill="#E9DEEF"/>
<path d="M72.2648 47.3344H56.8242V69.2297H72.2648V47.3344Z" fill="#E9DEEF"/>
<path d="M24.8039 23.0344C25.9922 23.0344 26.9555 22.0711 26.9555 20.8828C26.9555 19.6945 25.9922 18.7313 24.8039 18.7313C23.6156 18.7313 22.6523 19.6945 22.6523 20.8828C22.6523 22.0711 23.6156 23.0344 24.8039 23.0344Z" fill="#E9DEEF"/>
<path d="M46.0664 45.8157V34.9313C46.0664 34.8047 46.193 34.6782 46.3195 34.6782H72.6445C72.7711 34.6782 72.8977 34.8047 72.8977 34.9313V68.9766C72.8977 69.1032 72.7711 69.2297 72.6445 69.2297H61.1273" stroke="#5B2077" stroke-width="2" stroke-miterlimit="10"/>
<path d="M56.4453 69.2297H21.3875C21.2609 69.2297 21.0078 69.1031 21.0078 68.85V50.1188C21.0078 49.9922 21.1344 49.7391 21.3875 49.7391H56.4453C56.5719 49.7391 56.825 49.8656 56.825 50.1188V68.85C56.825 68.9766 56.6984 69.2297 56.4453 69.2297Z" stroke="#5B2077" stroke-width="2" stroke-miterlimit="10"/>
<path d="M21.2578 49.6125L38.85 59.3578L56.5688 49.6125" stroke="#5B2077" stroke-width="2" stroke-miterlimit="10"/>
<path d="M16.8305 69.2297H11.6414C11.3883 69.2297 11.2617 69.1031 11.2617 68.85V10.5047C11.2617 10.2516 11.3883 10.125 11.6414 10.125H56.0649C56.318 10.125 56.4445 10.2516 56.4445 10.5047V31.1344" stroke="#5B2077" stroke-width="2" stroke-miterlimit="10"/>
<path d="M24.4258 22.9078C25.8238 22.9078 26.957 21.7745 26.957 20.3765C26.957 18.9786 25.8238 17.8453 24.4258 17.8453C23.0278 17.8453 21.8945 18.9786 21.8945 20.3765C21.8945 21.7745 23.0278 22.9078 24.4258 22.9078Z" stroke="#5B2077" stroke-width="2" stroke-miterlimit="10"/>
<path d="M29.3594 20.3765H32.9031" stroke="#5B2077" stroke-width="2" stroke-miterlimit="10"/>
<path d="M16.0703 20.3765H19.6141" stroke="#5B2077" stroke-width="2" stroke-miterlimit="10"/>
<path d="M31.2555 65.5593C32.3738 65.5593 33.2805 64.6527 33.2805 63.5343C33.2805 62.416 32.3738 61.5093 31.2555 61.5093C30.1371 61.5093 29.2305 62.416 29.2305 63.5343C29.2305 64.6527 30.1371 65.5593 31.2555 65.5593Z" stroke="#5B2077" stroke-width="2" stroke-miterlimit="10"/>
<path d="M35.1797 63.5343H37.9641" stroke="#5B2077" stroke-width="2" stroke-miterlimit="10"/>
<path d="M24.4219 63.5343H27.2063" stroke="#5B2077" stroke-width="2" stroke-miterlimit="10"/>
<path d="M56.568 43.7907C57.6863 43.7907 58.593 42.884 58.593 41.7657C58.593 40.6473 57.6863 39.7407 56.568 39.7407C55.4496 39.7407 54.543 40.6473 54.543 41.7657C54.543 42.884 55.4496 43.7907 56.568 43.7907Z" stroke="#5B2077" stroke-width="2" stroke-miterlimit="10"/>
<path d="M60.4922 41.7656H63.2766" stroke="#5B2077" stroke-width="2" stroke-miterlimit="10"/>
<path d="M49.7344 41.7656H52.5188" stroke="#5B2077" stroke-width="2" stroke-miterlimit="10"/>
</svg>
