<svg width="90" height="90" viewBox="0 0 90 90" fill="none" xmlns="http://www.w3.org/2000/svg">
<path d="M38.3906 63.9844V76.2187C38.3906 76.3594 38.5313 76.5 38.8125 76.5L45.1406 73.8281L51.4687 76.5C51.6094 76.6406 51.8906 76.5 51.8906 76.2187V63.9844" stroke="#5B2077" stroke-width="2" stroke-miterlimit="10"/>
<path d="M59.4867 64.6875L45.8461 57.7969C45.5649 57.6562 45.2836 57.6562 44.8617 57.7969L31.3617 65.1094C30.7992 65.3906 29.9555 64.9688 29.9555 64.125L32.3461 48.9375C32.3461 48.6562 32.3461 48.375 32.0649 48.2344L21.0961 37.6875C20.5336 37.2656 20.8149 36.2812 21.518 36.1406L36.7055 33.75C36.9867 33.75 37.268 33.4687 37.268 33.3281L43.8774 19.5469C44.1586 18.9844 45.143 18.8437 45.5649 19.5469L52.4555 33.1875C52.5961 33.4687 52.8774 33.6094 53.1586 33.6094L68.3461 35.5781C69.0492 35.7187 69.4711 36.7031 68.768 37.125L57.9399 47.9531C57.7992 48.0937 57.6586 48.375 57.6586 48.6562L60.4711 63.7031C60.7524 64.5469 60.0492 65.1094 59.4867 64.6875Z" fill="#E9DEEF" stroke="#5B2077" stroke-width="2" stroke-miterlimit="10"/>
<path d="M68.3438 20.3906C74.3906 26.4375 78.0469 34.5938 78.0469 43.7344C78.0469 52.875 74.3906 61.0313 68.3438 67.0781" stroke="#5B2077" stroke-width="2" stroke-miterlimit="10"/>
<path d="M21.6562 20.3906C27.7031 14.3437 35.8594 10.6875 45 10.6875C54.1406 10.6875 62.2969 14.3437 68.3437 20.3906" stroke="#5B2077" stroke-width="2" stroke-miterlimit="10" stroke-dasharray="2 2"/>
<path d="M21.6563 67.0781C15.6094 61.0313 11.9531 52.875 11.9531 43.7344C11.9531 34.5938 15.6094 26.4375 21.6563 20.3906" stroke="#5B2077" stroke-width="2" stroke-miterlimit="10"/>
</svg>
