<?xml version="1.0" encoding="utf-8"?>
<!-- Generator: Adobe Illustrator 25.3.0, SVG Export Plug-In . SVG Version: 6.00 Build 0)  -->
<svg version="1.1" id="레이어_1" xmlns="http://www.w3.org/2000/svg" xmlns:xlink="http://www.w3.org/1999/xlink" x="0px"
	 y="0px" viewBox="0 0 12 16" style="enable-background:new 0 0 12 16;" xml:space="preserve">
<style type="text/css">
	.st0{fill:#56599E;}
</style>
<path class="st0" d="M2.52,4.28L2.52,4.28c-0.18,0-0.33-0.15-0.33-0.33l0-3.16c0-0.18,0.15-0.33,0.33-0.33h0
	c0.18,0,0.33,0.15,0.33,0.33l0,3.16C2.85,4.13,2.7,4.28,2.52,4.28z"/>
<path class="st0" d="M2.52,15.68L2.52,15.68c-0.18,0-0.33-0.15-0.33-0.33l0-3.24c0-0.18,0.15-0.33,0.33-0.33h0
	c0.18,0,0.33,0.15,0.33,0.33l0,3.24C2.85,15.53,2.7,15.68,2.52,15.68z"/>
<path class="st0" d="M0.31,8.15L0.31,8.15c0-0.18,0.15-0.33,0.33-0.33l8.18,0c0.18,0,0.33,0.15,0.33,0.33v0
	c0,0.18-0.15,0.33-0.33,0.33l-8.18,0C0.46,8.47,0.31,8.33,0.31,8.15z"/>
<path class="st0" d="M5.79,4.86L5.79,4.86c0.17-0.11,0.42-0.08,0.55,0.06l2.73,3.02C9.2,8.09,9.17,8.3,8.99,8.41l0,0
	C8.82,8.52,8.58,8.49,8.45,8.34L5.72,5.32C5.59,5.18,5.62,4.97,5.79,4.86z"/>
<path class="st0" d="M8.88,7.96L8.88,7.96c0.18,0.1,0.22,0.31,0.1,0.45l-2.54,3.14c-0.12,0.15-0.36,0.19-0.54,0.09h0
	c-0.18-0.1-0.22-0.31-0.1-0.45l2.54-3.14C8.46,7.9,8.7,7.86,8.88,7.96z"/>
<path class="st0" d="M2.23,0.72L2.23,0.72C2.24,0.54,2.4,0.4,2.58,0.42l8.9,0.71c0.18,0.01,0.31,0.17,0.3,0.35l0,0
	c-0.01,0.18-0.17,0.31-0.35,0.3l-8.9-0.71C2.35,1.06,2.21,0.9,2.23,0.72z"/>
<path class="st0" d="M11.51,1.1L11.51,1.1c0.18,0,0.33,0.15,0.33,0.33l0,12.91c0,0.18-0.15,0.33-0.33,0.33h0
	c-0.18,0-0.33-0.15-0.33-0.33l0-12.91C11.18,1.25,11.33,1.1,11.51,1.1z"/>
<path class="st0" d="M11.7,14.34L11.7,14.34c0.02,0.18-0.11,0.34-0.29,0.36L2.6,15.67c-0.18,0.02-0.34-0.11-0.36-0.29h0
	c-0.02-0.18,0.11-0.34,0.29-0.36l8.81-0.97C11.51,14.03,11.68,14.16,11.7,14.34z"/>
</svg>
