<svg width="32" height="33" viewBox="0 0 32 33" fill="none" xmlns="http://www.w3.org/2000/svg">
<path fill-rule="evenodd" clip-rule="evenodd" d="M20.0272 4.14912C18.8267 3.4947 17.4527 3.125 15.9999 3.125C11.697 3.125 8.08576 6.36802 7.62481 10.6462L7.2612 14.021C7.18676 14.7119 7.15479 15.0011 7.10066 15.2805C6.98887 15.8576 6.80483 16.4183 6.55289 16.9494C6.43091 17.2066 6.28527 17.4585 5.93582 18.0591L4.88436 19.8663L4.84789 19.929C4.49083 20.5425 4.16789 21.0974 3.98194 21.5635C3.78647 22.0535 3.6292 22.7188 4.00492 23.3721C4.38065 24.0254 5.03476 24.224 5.5566 24.3015C6.05299 24.3752 6.69502 24.3751 7.40487 24.375L7.4774 24.375H24.5224L24.5949 24.375C25.3047 24.3751 25.9468 24.3752 26.4432 24.3015C26.965 24.224 27.6191 24.0254 27.9948 23.3721C28.3706 22.7188 28.2133 22.0535 28.0178 21.5635C27.8319 21.0974 27.5089 20.5425 27.1519 19.929L27.1519 19.929L27.1154 19.8663L26.0639 18.0591C25.7145 17.4585 25.5689 17.2066 25.4469 16.9494C25.1949 16.4183 25.0109 15.8576 24.8991 15.2805C24.845 15.0011 24.813 14.7119 24.7386 14.021L24.7313 13.9533C24.4926 13.9841 24.2485 14 23.9999 14C23.5533 14 23.1214 13.9487 22.7088 13.852L22.7501 14.2352L22.7551 14.2819L22.7551 14.282C22.8231 14.9127 22.8636 15.2892 22.9356 15.6608C23.0793 16.4028 23.316 17.1238 23.6399 17.8066C23.8022 18.1487 23.9926 18.476 24.3117 19.0244L24.3353 19.0649L25.3867 20.8721C25.7921 21.5689 26.0361 21.9935 26.1602 22.3046L26.1665 22.3206L26.1495 22.3232C25.8182 22.3723 25.3286 22.375 24.5224 22.375H7.4774C6.6712 22.375 6.18154 22.3723 5.85027 22.3232L5.83328 22.3206L5.83959 22.3046C5.96368 21.9935 6.20762 21.5689 6.61305 20.8721L7.66452 19.0649L7.6881 19.0244L7.68812 19.0243C8.0072 18.476 8.19761 18.1487 8.35988 17.8066C8.68381 17.1238 8.92043 16.4028 9.06416 15.6608C9.13616 15.2891 9.17671 14.9127 9.24466 14.2819L9.24466 14.2819L9.24969 14.2352L9.6133 10.8604C9.96481 7.59803 12.7186 5.125 15.9999 5.125C17.029 5.125 18.0063 5.36827 18.8738 5.80287C19.16 5.18654 19.5513 4.62616 20.0272 4.14912ZM22.3889 6.05837C21.8115 6.51046 21.4182 7.19966 21.3454 7.98531C21.8189 8.69467 22.1559 9.50583 22.3171 10.3834C22.7761 10.7689 23.3618 11 23.9999 11C24.1392 11 24.276 10.989 24.4096 10.9677L24.375 10.6462C24.186 8.8922 23.4675 7.31221 22.3889 6.05837ZM26.2232 22.5104C26.2231 22.5103 26.2228 22.5078 26.2227 22.5033C26.2234 22.5082 26.2234 22.5105 26.2232 22.5104ZM26.3527 22.2772C26.3566 22.2751 26.3589 22.2741 26.3591 22.2742C26.3593 22.2743 26.3573 22.2753 26.3527 22.2772ZM5.64068 22.2742C5.64085 22.2741 5.64315 22.2751 5.64707 22.2773C5.64248 22.2753 5.64052 22.2743 5.64068 22.2742ZM5.77709 22.5033C5.77701 22.5078 5.77667 22.5103 5.77653 22.5104C5.77638 22.5105 5.77642 22.5082 5.77709 22.5033Z" fill="#6759F6"/>
<path d="M12.1363 24.2889C12.3642 25.6046 12.8664 26.7672 13.565 27.5964C14.2635 28.4256 15.1195 28.875 16 28.875C16.8805 28.875 17.7365 28.4256 18.435 27.5964C19.1336 26.7672 19.6358 25.6046 19.8637 24.2889" stroke="#6759F6" stroke-width="2" stroke-linecap="round"/>
<path d="M24.0002 11.5C25.7635 11.5 27.1668 10.0303 27.1668 8.25C27.1668 6.46969 25.7635 5 24.0002 5C22.2369 5 20.8335 6.46969 20.8335 8.25C20.8335 10.0303 22.2369 11.5 24.0002 11.5Z" fill="#D70000" stroke="#D70000"/>
</svg>
