<svg width="56" height="54" viewBox="0 0 56 54" fill="none" xmlns="http://www.w3.org/2000/svg">
<path d="M50.0527 7.80267L47.6634 9.61691V9.61691L50.0527 7.80267ZM50.0527 36.0196L52.4419 37.8338H52.4419L50.0527 36.0196ZM46.6645 39.0011L48.185 41.5872L46.6645 39.0011ZM33.7015 40.8186L33.69 37.8186C32.0376 37.8249 30.7015 39.1662 30.7015 40.8186H33.7015ZM33.7015 40.8225L36.3098 42.3045C36.5665 41.8528 36.7015 41.3421 36.7015 40.8225H33.7015ZM28.4306 50.0987L25.8223 48.6166L28.4306 50.0987ZM26.6917 50.0987L29.3001 48.6166L26.6917 50.0987ZM21.4209 40.8225H18.4209C18.4209 41.3421 18.5558 41.8528 18.8125 42.3045L21.4209 40.8225ZM21.4209 40.8186H24.4209C24.4209 39.1662 23.0847 37.8249 21.4324 37.8186L21.4209 40.8186ZM8.45786 39.0011L6.93731 41.5872H6.93731L8.45786 39.0011ZM5.06965 36.0196L2.6804 37.8338H2.6804L5.06965 36.0196ZM5.06965 7.80267L7.45891 9.61691L7.45891 9.61691L5.06965 7.80267ZM8.45786 4.8212L6.93731 2.23509H6.93731L8.45786 4.8212ZM46.6645 4.8212L48.185 2.23509L46.6645 4.8212ZM55.1223 21.9111C55.1223 18.1876 55.127 15.1387 54.8438 12.6888C54.5522 10.1666 53.926 7.94291 52.4419 5.98843L47.6634 9.61691C48.249 10.388 48.6576 11.4243 48.8835 13.3778C49.1177 15.4036 49.1223 18.0461 49.1223 21.9111H55.1223ZM52.4419 37.8338C53.926 35.8794 54.5522 33.6557 54.8438 31.1335C55.127 28.6836 55.1223 25.6346 55.1223 21.9111H49.1223C49.1223 25.7762 49.1177 28.4187 48.8835 30.4444C48.6576 32.3979 48.249 33.4342 47.6634 34.2054L52.4419 37.8338ZM48.185 41.5872C49.846 40.6106 51.2978 39.3406 52.4419 37.8338L47.6634 34.2054C47.0157 35.0584 46.1649 35.8147 45.1439 36.415L48.185 41.5872ZM33.713 43.8186C37.0124 43.8059 39.7423 43.7514 42.0147 43.4749C44.3216 43.1943 46.3505 42.6658 48.185 41.5872L45.1439 36.415C44.2726 36.9273 43.1322 37.2948 41.2902 37.5188C39.4137 37.7471 37.015 37.8058 33.69 37.8186L33.713 43.8186ZM36.7015 40.8225V40.8186H30.7015V40.8225H36.7015ZM31.039 51.5808L36.3098 42.3045L31.0931 39.3404L25.8223 48.6166L31.039 51.5808ZM24.0834 51.5808C25.6167 54.2793 29.5056 54.2793 31.039 51.5808L25.8223 48.6166C26.5889 47.2673 28.5334 47.2673 29.3001 48.6166L24.0834 51.5808ZM18.8125 42.3045L24.0834 51.5808L29.3001 48.6166L24.0292 39.3404L18.8125 42.3045ZM18.4209 40.8186V40.8225H24.4209V40.8186H18.4209ZM6.93731 41.5872C8.77187 42.6658 10.8007 43.1943 13.1077 43.4749C15.38 43.7514 18.1099 43.8059 21.4094 43.8186L21.4324 37.8186C18.1074 37.8058 15.7087 37.7471 13.8321 37.5188C11.9902 37.2948 10.8497 36.9273 9.9784 36.415L6.93731 41.5872ZM2.6804 37.8338C3.82458 39.3406 5.27639 40.6106 6.93731 41.5872L9.97841 36.415C8.95749 35.8147 8.10668 35.0584 7.45891 34.2054L2.6804 37.8338ZM0 21.9111C0 25.6346 -0.00466895 28.6836 0.278555 31.1335C0.570132 33.6557 1.1963 35.8794 2.6804 37.8338L7.45891 34.2054C6.87335 33.4342 6.46469 32.3979 6.23886 30.4444C6.00467 28.4187 6 25.7762 6 21.9111H0ZM2.6804 5.98843C1.1963 7.94291 0.570132 10.1666 0.278555 12.6888C-0.00466895 15.1387 0 18.1876 0 21.9111H6C6 18.0461 6.00467 15.4036 6.23886 13.3778C6.46469 11.4243 6.87335 10.388 7.45891 9.61691L2.6804 5.98843ZM6.93731 2.23509C5.27639 3.21166 3.82457 4.48161 2.6804 5.98843L7.45891 9.61691C8.10668 8.76383 8.95749 8.00757 9.9784 7.40731L6.93731 2.23509ZM24.491 0C20.2342 0 16.8426 -0.00281501 14.1346 0.239598C11.3931 0.485002 9.03512 1.00165 6.93731 2.23509L9.9784 7.40731C10.9781 6.81955 12.3247 6.4256 14.6695 6.2157C17.0478 6.00282 20.1241 6 24.491 6V0ZM30.6313 0H24.491V6H30.6313V0ZM48.185 2.23509C46.0872 1.00165 43.7292 0.485002 40.9878 0.239598C38.2797 -0.00281501 34.8882 0 30.6313 0V6C34.9983 6 38.0746 6.00282 40.4528 6.2157C42.7976 6.4256 44.1443 6.81955 45.1439 7.40731L48.185 2.23509ZM52.4419 5.98843C51.2978 4.48161 49.846 3.21166 48.185 2.23509L45.1439 7.40731C46.1649 8.00757 47.0157 8.76383 47.6634 9.61691L52.4419 5.98843Z" fill="#4D7BFF"/>
<ellipse cx="39.9205" cy="22.1147" rx="1.921" ry="2.53559" fill="#4C7BFF" stroke="#4D7BFF" stroke-width="4" stroke-linecap="round"/>
<ellipse cx="27.6402" cy="22.1147" rx="1.921" ry="2.53559" fill="#4C7BFF" stroke="#4D7BFF" stroke-width="4" stroke-linecap="round"/>
<ellipse cx="16.5875" cy="22.1147" rx="1.921" ry="2.53559" fill="#4C7BFF" stroke="#4D7BFF" stroke-width="4" stroke-linecap="round"/>
</svg>
