<svg width="27" height="25" viewBox="0 0 27 25" fill="none" xmlns="http://www.w3.org/2000/svg">
<path d="M24.0235 3.29362L23.2342 3.90767L23.2342 3.90767L24.0235 3.29362ZM24.0235 16.7692L23.2342 16.1552L23.2342 16.1552L24.0235 16.7692ZM22.3656 18.1931L22.8633 19.0604L22.8633 19.0604L22.3656 18.1931ZM16.0225 19.0611L16.0187 18.0611C15.6641 18.0624 15.3367 18.2515 15.1582 18.558L16.0225 19.0611ZM13.8824 22.7371L14.7466 23.2402L14.7466 23.2402L13.8824 22.7371ZM12.154 22.7371L11.2898 23.2402L11.2898 23.2402L12.154 22.7371ZM10.0139 19.0611L10.8781 18.558C10.6997 18.2515 10.3723 18.0624 10.0177 18.0611L10.0139 19.0611ZM3.6706 18.1931L4.16833 17.3258L4.16832 17.3258L3.6706 18.1931ZM2.01271 16.7692L2.80197 16.1552L2.80197 16.1552L2.01271 16.7692ZM2.01271 3.29362L2.80197 3.90767L2.80197 3.90767L2.01271 3.29362ZM3.6706 1.86975L4.16832 2.73709L4.16832 2.73709L3.6706 1.86975ZM22.3656 1.86975L21.8678 2.73709L21.8678 2.73709L22.3656 1.86975ZM26.0362 10.0314C26.0362 8.24355 26.0378 6.81512 25.9026 5.674C25.7644 4.50716 25.473 3.52826 24.8127 2.67957L23.2342 3.90767C23.5866 4.36066 23.8016 4.93862 23.9165 5.90925C24.0345 6.90559 24.0362 8.19522 24.0362 10.0314H26.0362ZM24.8127 17.3833C25.473 16.5346 25.7644 15.5557 25.9026 14.3889C26.0378 13.2477 26.0362 11.8193 26.0362 10.0314H24.0362C24.0362 11.8676 24.0345 13.1573 23.9165 14.1536C23.8016 15.1242 23.5866 15.7022 23.2342 16.1552L24.8127 17.3833ZM22.8633 19.0604C23.6253 18.6231 24.2898 18.0554 24.8127 17.3833L23.2342 16.1552C22.8803 16.6101 22.4181 17.01 21.8678 17.3258L22.8633 19.0604ZM16.0262 20.0611C17.6428 20.055 18.9514 20.0287 20.031 19.9005C21.1213 19.7711 22.0423 19.5316 22.8633 19.0604L21.8678 17.3258C21.3648 17.6144 20.735 17.8029 19.7952 17.9145C18.8445 18.0273 17.6436 18.055 16.0187 18.0611L16.0262 20.0611ZM14.7466 23.2402L16.8867 19.5642L15.1582 18.558L13.0182 22.234L14.7466 23.2402ZM11.2898 23.2402C12.0611 24.5652 13.9752 24.5652 14.7466 23.2402L13.0182 22.234H13.0182L11.2898 23.2402ZM9.14971 19.5642L11.2898 23.2402L13.0182 22.234L10.8781 18.558L9.14971 19.5642ZM3.17287 19.0604C3.99389 19.5316 4.91495 19.7711 6.00528 19.9005C7.08482 20.0287 8.39352 20.055 10.0102 20.0611L10.0177 18.0611C8.39266 18.055 7.19173 18.0273 6.24104 17.9145C5.30114 17.8029 4.67137 17.6144 4.16833 17.3258L3.17287 19.0604ZM1.22344 17.3833C1.74633 18.0554 2.41083 18.6231 3.17287 19.0604L4.16832 17.3258C3.61811 17.01 3.1559 16.6101 2.80197 16.1552L1.22344 17.3833ZM0 10.0314C0 11.8193 -0.00163263 13.2477 0.13353 14.3889C0.271739 15.5557 0.563161 16.5346 1.22344 17.3833L2.80197 16.1552C2.44954 15.7022 2.23461 15.1242 2.11965 14.1536C2.00163 13.1573 2 11.8676 2 10.0314H0ZM1.22344 2.67957C0.563161 3.52826 0.271739 4.50716 0.13353 5.674C-0.00163263 6.81512 0 8.24355 0 10.0314H2C2 8.19522 2.00163 6.90559 2.11965 5.90925C2.23461 4.93862 2.44954 4.36066 2.80197 3.90767L1.22344 2.67957ZM3.17287 1.00242C2.41083 1.43972 1.74633 2.00748 1.22344 2.67957L2.80197 3.90767C3.15591 3.45274 3.61811 3.05284 4.16832 2.73709L3.17287 1.00242ZM11.5158 0C9.42387 0 7.79019 -0.000894192 6.49213 0.112514C5.18382 0.226819 4.11178 0.463619 3.17287 1.00242L4.16832 2.73709C4.74504 2.40614 5.48574 2.20806 6.6662 2.10492C7.85692 2.00089 9.38804 2 11.5158 2V0ZM14.5203 0H11.5158V2H14.5203V0ZM22.8633 1.00242C21.9244 0.463619 20.8523 0.226819 19.544 0.112514C18.246 -0.000894192 16.6123 0 14.5203 0V2C16.6481 2 18.1792 2.00089 19.37 2.10492C20.5504 2.20806 21.2911 2.40614 21.8678 2.73709L22.8633 1.00242ZM24.8127 2.67957C24.2898 2.00748 23.6253 1.43972 22.8633 1.00242L21.8678 2.73709C22.4181 3.05284 22.8803 3.45274 23.2342 3.90767L24.8127 2.67957Z" fill="#FFED5A"/>
<ellipse cx="19.1931" cy="9.85153" rx="1.21291" ry="1.56247" fill="#FFED5A" stroke="#FFED5A" stroke-linecap="round"/>
<ellipse cx="13.1286" cy="9.85153" rx="1.21284" ry="1.56247" fill="#FFED5A" stroke="#FFED5A" stroke-linecap="round"/>
<ellipse cx="7.06428" cy="9.85153" rx="1.21284" ry="1.56247" fill="#FFED5A" stroke="#FFED5A" stroke-linecap="round"/>
</svg>
