<?xml version="1.0" encoding="utf-8"?>
<!-- Generator: Adobe Illustrator 26.0.0, SVG Export Plug-In . SVG Version: 6.00 Build 0)  -->
<svg version="1.1" id="Layer_1" xmlns="http://www.w3.org/2000/svg" xmlns:xlink="http://www.w3.org/1999/xlink" x="0px" y="0px"
	 viewBox="0 0 1706.51 438.39" style="enable-background:new 0 0 1706.51 438.39;" xml:space="preserve">
<style type="text/css">
	.st0{fill:#5A298A;}
</style>
<g>
	<path class="st0" d="M112.63,214.53c21.19,5.19,37.53-4.97,51.72-22.86c9.06-11.42,20.99-31.9,29.73-43.57
		c9.87-13.18,24.12-23.89,37.75-24.62c0,0-88.07-50.85-88.15-50.89c-21.76-12.56-51.5-13.77-69.78,2.86
		c-21.68,19.72-20.38,52.7-9.59,79.94C72.9,177.12,90.95,209.22,112.63,214.53z"/>
	<path class="st0" d="M297.16,161.21l-40.63-23.46c2.64,4.62,4.32,9.87,5.88,14.98c9.46,30.91,8.16,71.17,4.4,103.27
		c-1.3,11.09-3.06,21.26-5.2,31.35l35.55-20.53C337.81,243.35,337.81,184.68,297.16,161.21z"/>
	<path class="st0" d="M231.76,223.32c-0.34-11.99-4.76-26.18-16.37-29.18c-6.88-1.78-14.14,1.16-20.03,5.14
		c-15.38,10.4-24.7,27.39-36.33,41.86c-11.64,14.47-25.36,27.81-41.56,25.19c-18.67-3.01-30-24.84-40.25-41.92
		c-8.26-13.75-14.39-10.39-17.59-0.8c-7.63,22.88-9.21,47.67-7.41,71.6c1.62,21.53,5.87,41.19,19.81,56.04
		c12.22,13.02,31.59,16.46,48.32,11.46C183.81,343.73,233.63,288.69,231.76,223.32z"/>
	<circle class="st0" cx="332.02" cy="85.55" r="28.32"/>
</g>
<g>
	<path class="st0" d="M653.1,173.49c6.56-5.33,16.06-0.38,16.06,8.36v162.32c0,9.91-7.61,17.95-16.99,17.95h-0.1
		c-9.38,0-16.99-8.04-16.99-17.95V233.63l-33.53,27.09l-13.42,10.98c-8.48,6.94-20.32,6.93-28.8,0l-13.4-10.97l-33.54-27.09v110.55
		c0,9.91-7.61,17.95-16.99,17.95h-0.1c-9.38,0-16.99-8.04-16.99-17.95V181.86c0-8.75,9.5-13.69,16.06-8.36l18.02,14.63l53.93,43.82
		c4.37,3.55,10.46,3.55,14.83,0l53.93-43.82L653.1,173.49z"/>
	<path class="st0" d="M855.43,362.13L855.43,362.13c-6.38,0-12.22-3.77-15.12-9.77l-12.72-26.24l-41.71-86.43l-41.71,86.43
		l-12.71,26.24c-2.91,6-8.75,9.77-15.12,9.77l0,0c-12.7,0-20.91-14.19-15.12-26.13l4.79-9.88L777,178.9c3.7-7.68,14.08-7.68,17.78,0
		l70.99,147.22l4.79,9.88C876.34,347.95,868.13,362.13,855.43,362.13z"/>
	<path class="st0" d="M1009.75,247.9l63.12,87.29c8.12,11.23,0.1,26.94-13.77,26.94h-0.06c-5.45,0-10.56-2.61-13.76-7.02
		l-60.9-84.04l-48.26,43.89v30.18c0,9.38-7.61,16.99-16.99,16.99h-0.1c-9.38,0-16.99-7.61-16.99-16.99V188.33
		c0-9.41,7.63-17.04,17.04-17.04h0c9.41,0,17.04,7.63,17.04,17.04v80.56l28.08-25.63l25.35-23.18l48.28-44.31
		c3.14-2.89,7.26-4.49,11.52-4.49h0.06c15.53,0,22.97,19.08,11.53,29.59L1009.75,247.9z"/>
	<path class="st0" d="M1140.9,222.82v27.71h105.7c9.38,0,16.99,7.61,16.99,16.99v0.1c0,9.38-7.61,16.99-16.99,16.99h-105.7v25.99
		c0,9.6,7.85,17.45,17.45,17.45h122.33c9.38,0,16.99,7.61,16.99,16.99v0.1c0,9.38-7.61,16.99-16.99,16.99h-122.33
		c-28.3,0-51.24-22.94-51.24-51.24v-88.07c0-28.34,23.19-51.53,51.53-51.53h122.05c9.38,0,16.99,7.61,16.99,16.99v0.1
		c0,9.38-7.61,16.99-16.99,16.99h-122.33C1148.76,205.37,1140.9,213.22,1140.9,222.82z"/>
	<path class="st0" d="M1403.23,345.09V188.33c0-9.41,7.63-17.04,17.04-17.04l0,0c9.41,0,17.04,7.63,17.04,17.04v156.76
		c0,9.41-7.63,17.04-17.04,17.04l0,0C1410.86,362.13,1403.23,354.51,1403.23,345.09z"/>
	<path class="st0" d="M1657.88,188.6L1657.88,188.6c0,9.41-7.63,17.04-17.04,17.04h-61.2v139.73c0,9.41-7.63,17.04-17.04,17.04h0
		c-9.41,0-17.04-7.63-17.04-17.04V205.64h-61.22c-9.41,0-17.04-7.63-17.04-17.04l0,0c0-9.41,7.63-17.04,17.04-17.04h156.5
		C1650.25,171.56,1657.88,179.19,1657.88,188.6z"/>
</g>
</svg>
