<svg width="18" height="17" viewBox="0 0 18 17" fill="none" xmlns="http://www.w3.org/2000/svg">
<path fill-rule="evenodd" clip-rule="evenodd" d="M14.1201 6.80718L15.8646 5.10615C16.4048 4.57949 16.6749 4.31616 16.8226 4.0336C17.1262 3.45303 17.1262 2.76056 16.8226 2.17998C16.6749 1.89742 16.4048 1.63409 15.8646 1.10743L15.8646 1.10742C15.3485 0.604199 15.0905 0.352585 14.8149 0.213769C14.2489 -0.0712562 13.5814 -0.0712562 13.0155 0.213769C12.7399 0.352585 12.4819 0.604199 11.9658 1.10742L11.9658 1.10743L10.095 2.93146C11.0615 4.55357 12.4497 5.89601 14.1201 6.80718ZM8.62908 4.3608L1.79442 11.0248C1.35811 11.4502 1.13995 11.6629 0.996036 11.9263C0.852122 12.1896 0.790898 12.4881 0.66845 13.085L0.0659193 16.0225C-0.0022456 16.3548 -0.036328 16.5209 0.0578253 16.616C0.151979 16.7111 0.31846 16.6786 0.651422 16.6137L3.74325 16.0108L3.74329 16.0108L3.74334 16.0107C4.32509 15.8973 4.61597 15.8406 4.87472 15.705C5.13348 15.5694 5.34568 15.3625 5.77007 14.9487L5.77007 14.9487L5.7701 14.9487L12.6329 8.25725C11.0191 7.27224 9.65188 5.93798 8.62908 4.3608Z" fill="white"/>
</svg>
