<svg width="17" height="18" viewBox="0 0 17 18" fill="none" xmlns="http://www.w3.org/2000/svg">
<path fill-rule="evenodd" clip-rule="evenodd" d="M11.5072 14.0024C10.3162 14.9004 8.85922 15.4286 7.28571 15.4286C3.26193 15.4286 0 11.9748 0 7.71429C0 3.4538 3.26193 0 7.28571 0C11.3095 0 14.5714 3.4538 14.5714 7.71429C14.5714 9.38035 14.0726 10.9231 13.2245 12.1841L16.6443 15.8051C17.1186 16.3073 17.1186 17.1213 16.6443 17.6234C16.1701 18.1255 15.4013 18.1255 14.9271 17.6234L11.5072 14.0024ZM12.1429 7.71429C12.1429 10.5546 9.96824 12.8571 7.28571 12.8571C4.60319 12.8571 2.42857 10.5546 2.42857 7.71429C2.42857 4.87396 4.60319 2.57143 7.28571 2.57143C9.96824 2.57143 12.1429 4.87396 12.1429 7.71429Z" fill="#816AFE"/>
</svg>
