<svg width="12" height="12" viewBox="0 0 12 12" fill="none" xmlns="http://www.w3.org/2000/svg">
<path fill-rule="evenodd" clip-rule="evenodd" d="M8.12274 9.33493C7.28204 9.93361 6.25357 10.2857 5.14286 10.2857C2.30254 10.2857 0 7.98318 0 5.14286C0 2.30254 2.30254 0 5.14286 0C7.98318 0 10.2857 2.30254 10.2857 5.14286C10.2857 6.25357 9.93361 7.28204 9.33493 8.12274L11.7489 10.5368C12.0837 10.8715 12.0837 11.4142 11.7489 11.7489C11.4142 12.0837 10.8715 12.0837 10.5368 11.7489L8.12274 9.33493ZM8.57143 5.14286C8.57143 7.03641 7.0364 8.57143 5.14286 8.57143C3.24931 8.57143 1.71429 7.03641 1.71429 5.14286C1.71429 3.24931 3.24931 1.71429 5.14286 1.71429C7.0364 1.71429 8.57143 3.24931 8.57143 5.14286Z" fill="#ADA4A4"/>
</svg>
