<svg width="81" height="81" viewBox="0 0 81 81" fill="none" xmlns="http://www.w3.org/2000/svg">
<path d="M31.0078 64.4203H50.7516C50.7516 64.4203 49.4859 73.6594 41.5125 72.1406C41.5125 72.2672 31.3875 74.5453 31.0078 64.4203Z" fill="#E9DEEF"/>
<path d="M29.7387 32.7797C29.7387 32.7797 28.0934 47.8406 38.8512 43.7906C38.8512 43.7906 40.6231 37.8422 29.7387 32.7797Z" fill="#E9DEEF"/>
<path d="M50.6237 33.2859C50.6237 33.2859 52.269 48.3468 41.5112 44.2968C41.6377 44.2968 39.7393 38.3484 50.6237 33.2859Z" fill="#E9DEEF"/>
<path d="M18.8578 14.3016C19.3641 14.8078 20.1234 14.8078 20.6297 14.3016C21.1359 13.7953 21.1359 13.0359 20.6297 12.5297L16.0734 7.97344C15.5672 7.46719 14.8078 7.46719 14.3016 7.97344C13.7953 8.47969 13.7953 9.23906 14.3016 9.74531L18.8578 14.3016Z" fill="#5B2077"/>
<path d="M11.2617 32.7797H4.93359C4.17422 32.7797 3.66797 33.4125 3.66797 34.0453C3.66797 34.8047 4.17422 35.3109 4.93359 35.3109H11.2617C12.0211 35.3109 12.5273 34.6781 12.5273 34.0453C12.5273 33.4125 11.8945 32.7797 11.2617 32.7797Z" fill="#5B2077"/>
<path d="M62.1398 53.7891C61.6336 53.2828 60.8742 53.2828 60.368 53.7891C59.8617 54.2953 59.8617 55.0547 60.368 55.5609L64.9242 60.1172C65.4304 60.6234 66.1898 60.6234 66.6961 60.1172C67.2023 59.6109 67.2023 58.8515 66.6961 58.3453L62.1398 53.7891Z" fill="#5B2077"/>
<path d="M18.8578 53.7891L14.3016 58.3453C13.7953 58.8515 13.7953 59.6109 14.3016 60.1172C14.8078 60.6234 15.5672 60.6234 16.0734 60.1172L20.6297 55.5609C21.1359 55.0547 21.1359 54.2953 20.6297 53.7891C20.25 53.2828 19.4906 53.2828 18.8578 53.7891C18.9844 53.7891 18.8578 53.7891 18.8578 53.7891Z" fill="#5B2077"/>
<path d="M76.0625 32.7797H69.7344C68.975 32.7797 68.4688 33.4125 68.4688 34.0453C68.4688 34.8047 69.1016 35.3109 69.7344 35.3109H76.0625C76.8219 35.3109 77.3281 34.6781 77.3281 34.0453C77.3281 33.2859 76.8219 32.7797 76.0625 32.7797Z" fill="#5B2077"/>
<path d="M61.125 14.5547C61.5047 14.5547 61.7578 14.4281 62.0109 14.175L66.5672 9.61873C67.0734 9.11248 67.0734 8.3531 66.5672 7.84685C66.0609 7.3406 65.3016 7.3406 64.7953 7.84685L60.2391 12.4031C59.7328 12.9094 59.7328 13.6687 60.2391 14.175C60.4922 14.4281 60.8719 14.5547 61.125 14.5547Z" fill="#5B2077"/>
<path d="M60.117 43.0312C63.7873 36.0703 63.6607 27.8437 59.7373 21.0093C56.067 14.4281 49.3591 10.2515 41.8919 9.87183C41.006 9.87183 39.9935 9.87183 39.1076 9.87183C31.6404 10.3781 24.9326 14.5546 21.2623 21.0093C17.4654 27.8437 17.3388 36.1968 20.8826 43.0312L29.1091 58.4718V64.5468C29.1091 69.4828 33.1591 73.4062 37.9685 73.4062H43.031C47.967 73.4062 51.8904 69.3562 51.8904 64.5468V58.4718L60.117 43.0312ZM31.6404 63.2812V59.4843H49.3591V63.2812H31.6404ZM23.5404 22.4015C26.7044 16.5796 32.6529 12.9093 39.2341 12.5296C40.1201 12.5296 40.8794 12.5296 41.7654 12.5296C48.3466 12.9093 54.2951 16.5796 57.4591 22.4015C60.8763 28.4765 61.0029 35.8171 57.8388 41.8921L49.8654 56.9531H41.7654V46.3218C42.3982 46.4484 43.1576 46.4484 43.7904 46.4484C46.0685 46.575 48.2201 45.8156 49.7388 44.2968C53.6623 40.3734 52.2701 32.9062 52.1435 32.5265C52.017 31.8937 51.3841 31.3875 50.6248 31.514C45.1826 32.6531 41.8919 37.8421 40.3732 41.2593C38.7279 37.8421 35.5638 32.6531 30.1216 31.514C29.4888 31.3875 28.7294 31.7671 28.6029 32.5265C28.4763 32.9062 27.0841 40.3734 31.0076 44.2968C32.6529 45.8156 34.8044 46.575 36.956 46.4484C37.5888 46.4484 38.3482 46.4484 38.981 46.3218V56.9531H30.881L23.0341 41.8921C19.9966 35.6906 20.1232 28.35 23.5404 22.4015ZM42.1451 43.7906C43.1576 41.2593 45.5623 36.0703 49.8654 34.425C50.1185 36.7031 49.992 40.5 47.967 42.525C46.7013 43.664 44.8029 44.1703 42.1451 43.7906ZM38.8545 43.7906C36.3232 44.1703 34.2982 43.664 33.0326 42.3984C30.881 40.2468 30.881 36.45 31.1341 34.2984C35.3107 36.0703 37.8419 41.2593 38.8545 43.7906ZM43.031 70.875H37.9685C34.931 70.875 32.3998 68.7234 31.7669 65.8125H49.3591C48.7263 68.7234 46.0685 70.875 43.031 70.875Z" fill="#5B2077"/>
</svg>
