<?xml version="1.0" encoding="utf-8"?>
<!-- Generator: Adobe Illustrator 25.4.1, SVG Export Plug-In . SVG Version: 6.00 Build 0)  -->
<svg version="1.1" id="레이어_1" xmlns="http://www.w3.org/2000/svg" xmlns:xlink="http://www.w3.org/1999/xlink" x="0px"
	 y="0px" viewBox="0 0 64 64" style="enable-background:new 0 0 64 64;" xml:space="preserve">
<style type="text/css">
	.st21{fill:#E9DEEF;}
	.st1{fill:#5B2077;}
	.st2{display:none;}
	.st3{display:inline;}
	.st4{fill:none;stroke:#4C5159;stroke-width:2;stroke-miterlimit:10;}
	.st5{display:inline;fill:none;stroke:#4C5159;stroke-width:2;stroke-miterlimit:10;}
	.st6{display:inline;fill:none;stroke:#4C5159;stroke-width:2;stroke-miterlimit:10;stroke-dasharray:1.9857,1.9857;}
	.st7{display:inline;fill:none;stroke:#4C5159;stroke-width:2;stroke-miterlimit:10;stroke-dasharray:2;}
	.st8{fill:none;stroke:#4C5159;stroke-width:2;stroke-miterlimit:10;stroke-dasharray:2;}
	.st9{display:inline;fill:none;stroke:#4C5159;stroke-width:2;stroke-miterlimit:10;stroke-dasharray:3;}
	.st10{fill:none;stroke:#4C5159;stroke-width:2;stroke-miterlimit:10;stroke-dasharray:3;}
	.st11{fill:none;stroke:#5B2077;stroke-width:2;stroke-miterlimit:10;}
	.st12{fill:none;stroke:#4C5159;stroke-width:2;stroke-miterlimit:10;stroke-dasharray:1.9857,1.9857;}
	.st13{display:inline;fill:none;stroke:#5B2077;stroke-width:2;stroke-miterlimit:10;}
	.st14{display:inline;fill:none;stroke:#5B2077;stroke-width:2;stroke-miterlimit:10;stroke-dasharray:1.9857,1.9857;}
	.st15{display:inline;fill:none;stroke:#5B2077;stroke-width:2;stroke-miterlimit:10;stroke-dasharray:2;}
	.st16{fill:none;stroke:#5B2077;stroke-width:2;stroke-miterlimit:10;stroke-dasharray:2;}
	.st17{display:inline;fill:none;stroke:#5B2077;stroke-width:2;stroke-miterlimit:10;stroke-dasharray:3;}
	.st18{fill:none;stroke:#5B2077;stroke-width:2;stroke-miterlimit:10;stroke-dasharray:3;}
	.st19{fill:#E9DEEF;stroke:#5B2077;stroke-width:2;stroke-miterlimit:10;}
	.st20{fill:none;stroke:#5B2077;stroke-width:2;stroke-miterlimit:10;stroke-dasharray:1.9857,1.9857;}
</style>
<path class="st21" d="M8.1,43l6-4l14.4,8.7c0,0,3.4,3.3,7.3,0l14.5-9l6.5,3.9c0,0,1.8,1.1-0.5,2.5L33.3,58.8h-2.8L6.7,44L8.1,43z"/>
<polyline class="st21" points="16.2,25.9 25,16.7 32.4,25.3 38.4,22 39.9,20.9 44.7,28.2 32,35.8 17.7,26.8 "/>
<g id="layer1" transform="translate(0,-274.42223)">
	<path id="path1485" class="st1" d="M32,278.9c-0.9,0-1.7,0.2-2.5,0.7L7.2,293c-0.7,0.4-1.3,1.2-1.3,2c0,0.8,0.5,1.5,1.3,2
		l22.3,13.4c1.5,0.9,3.5,0.9,5,0l22.3-13.4c0.7-0.4,1.3-1.2,1.3-2c0-0.8-0.5-1.5-1.3-2l-11.5-6.9c-0.4-0.2-1-0.1-1.2,0.3
		c0,0,0,0,0,0c-0.2,0.4-0.1,1,0.3,1.2l11.5,6.9c0.4,0.2,0.4,0.4,0.4,0.5s0,0.2-0.4,0.5l-10.4,6.3l-3.4-5.5c-1-1.6-3-2.1-4.6-1.2
		l-5.3,3l-4.9-5.7c-0.6-0.7-1.4-1-2.3-1c-0.8,0-1.7,0.4-2.2,1.1l-6.6,8.1l-8.1-4.9c-0.4-0.2-0.4-0.4-0.4-0.5s0-0.2,0.4-0.5
		l22.3-13.4c0.8-0.5,2.4-0.5,3.2,0l2.1,1.3c0.4,0.2,1,0.1,1.2-0.3c0,0,0,0,0,0c0.3-0.4,0.1-1-0.3-1.2c0,0,0,0,0,0l-2.1-1.2
		C33.7,279.1,32.9,278.9,32,278.9L32,278.9z M44.9,281.8c-0.2,0-0.3,0.1-0.5,0.2l-2.7,2.1l-2.7-1.5c-0.3-0.2-0.8-0.1-1,0.1l-2.2,2.1
		c-0.4,0.3-0.4,0.9,0,1.2c0.3,0.4,0.9,0.4,1.2,0c0,0,0,0,0,0l1.7-1.7l2.6,1.5c0.3,0.2,0.7,0.1,1-0.1l2.6-2l1.7,1.6
		c0.4,0.3,0.9,0.3,1.2,0c0.3-0.4,0.3-0.9,0-1.2c0,0,0,0,0,0l-2.2-2.1C45.4,281.8,45.2,281.8,44.9,281.8L44.9,281.8z M25.1,292.9
		c0.3,0,0.7,0.1,0.9,0.4l5.4,6.3c0.3,0.3,0.7,0.4,1.1,0.2l6-3.3c0.8-0.4,1.8-0.2,2.2,0.6l3.3,5.5l-10.4,6.2c-0.8,0.5-2.4,0.5-3.2,0
		l-12.7-7.6l6.4-7.9C24.4,293,24.7,292.9,25.1,292.9L25.1,292.9z M11.7,301.8c-0.1,0-0.3,0.1-0.4,0.1l-4.1,2.6
		c-0.7,0.5-1.2,1.2-1.2,2c0,0.8,0.5,1.5,1.3,2l22.3,13.4c1.5,0.9,3.5,0.9,5,0l22.3-13.4c0.7-0.4,1.3-1.2,1.3-2c0-0.8-0.5-1.5-1.3-2
		l-4.2-2.4c-0.4-0.2-1-0.1-1.2,0.3c0,0,0,0,0,0c-0.2,0.4-0.1,1,0.3,1.2c0,0,0,0,0,0l4.2,2.4c0.4,0.2,0.4,0.4,0.4,0.4s0,0.2-0.4,0.5
		l-22.3,13.4c-0.8,0.5-2.4,0.5-3.2,0L8.1,306.9c-0.4-0.2-0.4-0.4-0.4-0.4c0-0.1,0-0.2,0.4-0.5l4.1-2.6c0.4-0.3,0.5-0.8,0.3-1.2
		c0,0,0,0,0,0C12.3,301.9,12.1,301.8,11.7,301.8C11.8,301.8,11.7,301.8,11.7,301.8L11.7,301.8z M14.4,307.3c-0.5,0-0.9,0.4-0.9,0.9
		c0,0,0,0,0,0c0,0.5,0.4,0.9,0.9,0.9h8.8c0.5,0,0.9-0.4,0.9-0.9c0-0.5-0.4-0.9-0.9-0.9c0,0,0,0,0,0H14.4z M40.8,307.3
		c-0.5,0-0.9,0.4-0.9,0.9c0,0,0,0,0,0c0,0.5,0.4,0.9,0.9,0.9h3.5c0.5,0,0.9-0.4,0.9-0.9c0-0.5-0.4-0.9-0.9-0.9c0,0,0,0,0,0H40.8z
		 M20.6,310.9c-0.5,0-0.9,0.4-0.9,0.9c0,0,0,0,0,0c0,0.5,0.4,0.9,0.9,0.9h2.6c0.5,0,0.9-0.4,0.9-0.9c0-0.5-0.4-0.9-0.9-0.9
		c0,0,0,0,0,0H20.6z M35.5,310.9c-0.5,0-0.9,0.4-0.9,0.9l0,0c0,0.5,0.4,0.9,0.9,0.9h7.9c0.5,0,0.9-0.4,0.9-0.9
		c0-0.5-0.4-0.9-0.9-0.9c0,0,0,0,0,0H35.5z M11.7,313.1c-0.2,0-0.3,0-0.5,0.1L7.1,316c-0.7,0.5-1.2,1.2-1.2,2c0,0.8,0.5,1.5,1.3,2
		l22.3,13.4c1.5,0.9,3.5,0.9,5,0l22.3-13.4c0.7-0.4,1.3-1.2,1.3-2c0-0.8-0.5-1.5-1.3-2l-4-2.5c-0.4-0.3-1-0.1-1.2,0.3
		c-0.3,0.4-0.1,1,0.3,1.2l4,2.5c0.4,0.2,0.4,0.4,0.4,0.5c0,0.1,0,0.2-0.4,0.5l-22.3,13.4c-0.8,0.5-2.4,0.5-3.2,0L8.1,318.4
		c-0.4-0.2-0.4-0.4-0.4-0.4c0-0.1,0-0.3,0.4-0.5l4.1-2.7c0.4-0.3,0.5-0.8,0.3-1.2C12.3,313.3,12,313.1,11.7,313.1L11.7,313.1z
		 M37.3,314.4c-0.5,0-0.9,0.4-0.9,0.9l0,0c0,0.5,0.4,0.9,0.9,0.9h0.9c0.5,0,0.9-0.4,0.9-0.9c0-0.5-0.4-0.9-0.9-0.9c0,0,0,0,0,0H37.3
		z M28.5,315.3c-0.5,0-0.9,0.4-0.9,0.9c0,0,0,0,0,0c0,0.5,0.4,0.9,0.9,0.9h5.3c0.5,0,0.9-0.4,0.9-0.9c0-0.5-0.4-0.9-0.9-0.9
		c0,0,0,0,0,0H28.5z"/>
</g>
</svg>
