<?xml version="1.0" encoding="utf-8"?>
<!-- Generator: Adobe Illustrator 25.4.1, SVG Export Plug-In . SVG Version: 6.00 Build 0)  -->
<svg version="1.1" id="레이어_1" xmlns="http://www.w3.org/2000/svg" xmlns:xlink="http://www.w3.org/1999/xlink" x="0px"
	 y="0px" viewBox="0 0 64 64" style="enable-background:new 0 0 64 64;" xml:space="preserve">
<style type="text/css">
	.st0{fill-rule:evenodd;clip-rule:evenodd;fill:#E9DEEF;}
	.st1{fill:#E9DEEF;}
	.st2{fill:#5B2077;}
	.st3{display:none;}
	.st4{display:inline;}
	.st5{fill:none;stroke:#4C5159;stroke-width:2;stroke-miterlimit:10;}
	.st6{display:inline;fill:none;stroke:#4C5159;stroke-width:2;stroke-miterlimit:10;}
	.st7{display:inline;fill:none;stroke:#4C5159;stroke-width:2;stroke-miterlimit:10;stroke-dasharray:1.9857,1.9857;}
	.st8{display:inline;fill:none;stroke:#4C5159;stroke-width:2;stroke-miterlimit:10;stroke-dasharray:2;}
	.st9{fill:none;stroke:#4C5159;stroke-width:2;stroke-miterlimit:10;stroke-dasharray:2;}
	.st10{display:inline;fill:none;stroke:#4C5159;stroke-width:2;stroke-miterlimit:10;stroke-dasharray:3;}
	.st11{fill:none;stroke:#4C5159;stroke-width:2;stroke-miterlimit:10;stroke-dasharray:3;}
	.st12{fill:none;stroke:#5B2077;stroke-width:2;stroke-miterlimit:10;}
	.st13{fill:none;stroke:#4C5159;stroke-width:2;stroke-miterlimit:10;stroke-dasharray:1.9857,1.9857;}
	.st14{display:inline;fill:none;stroke:#5B2077;stroke-width:2;stroke-miterlimit:10;}
	.st15{display:inline;fill:none;stroke:#5B2077;stroke-width:2;stroke-miterlimit:10;stroke-dasharray:1.9857,1.9857;}
	.st16{display:inline;fill:none;stroke:#5B2077;stroke-width:2;stroke-miterlimit:10;stroke-dasharray:2;}
	.st17{fill:none;stroke:#5B2077;stroke-width:2;stroke-miterlimit:10;stroke-dasharray:2;}
	.st18{display:inline;fill:none;stroke:#5B2077;stroke-width:2;stroke-miterlimit:10;stroke-dasharray:3;}
	.st19{fill:none;stroke:#5B2077;stroke-width:2;stroke-miterlimit:10;stroke-dasharray:3;}
	.st20{fill:#E9DEEF;stroke:#5B2077;stroke-width:2;stroke-miterlimit:10;}
	.st21{fill:none;stroke:#5B2077;stroke-width:2;stroke-miterlimit:10;stroke-dasharray:1.9857,1.9857;}
	.st22{fill-rule:evenodd;clip-rule:evenodd;fill:#5B2077;}
</style>
<path class="st0" d="M45.8,15.1c0,0,2.5,0.8,2,2.2c0,0-4.2,3-4.6,0.7L45.8,15.1z"/>
<path class="st0" d="M41.6,26.1c0,0,1.2-4.3,4.4-3.7c0,0,3.9-0.2,4.1,4.3C50.1,26.6,44.4,29.2,41.6,26.1z"/>
<path class="st0" d="M18.4,16.2c0.1,0,8-6.7,8-6.7v7.3l-8.4,0.1L18.4,16.2z"/>
<rect x="6.8" y="40" class="st0" width="21.8" height="14.2"/>
<g id="layer1_00000015313320415157854800000007621898851096002486_" transform="translate(0,-274.42223)">
	<path id="path1153" class="st2" d="M29.6,317c-0.1-1.6-1.3-2.9-2.7-2.9H8c-1.5,0-2.6,1.3-2.7,2.9c-0.1,3.5,0,7,0,10.5
		c0,1.7,1.2,3.1,2.8,3.1h18.8c1.5,0,2.8-1.4,2.8-3.1C29.6,324,29.7,320.5,29.6,317L29.6,317z M8,316.2h18.8c0.3,0,0.6,0.2,0.8,0.5
		L17.5,323l-10.2-6.3C7.4,316.4,7.7,316.2,8,316.2z M7.1,318.9l9.9,6.1c0.3,0.2,0.6,0.2,0.9,0l9.9-6.1v8.6c0,0.6-0.4,1-0.9,1H8
		c-0.5,0-0.9-0.5-0.9-1L7.1,318.9z M36.9,312.8c-0.5,0-0.9,0.4-0.9,0.9c0,0.5,0.4,0.9,0.9,0.9h8.3c0.5,0,0.9-0.4,0.9-0.9
		c0-0.5-0.4-0.9-0.9-0.9H36.9z M48.1,312.7c-0.5,0-0.9,0.4-0.9,0.9c0,0.5,0.4,0.9,0.9,0.9h7.4c0.5,0,0.9-0.4,0.9-0.9
		c0-0.5-0.4-0.9-0.9-0.9H48.1z M36.1,319.1c-0.5,0-0.9,0.4-0.9,0.9c0,0.5,0.4,0.9,0.9,0.9h11c0.5,0,0.9-0.4,0.9-0.9
		c0-0.5-0.4-0.9-0.9-0.9H36.1z M50.6,319.1c-0.5,0-0.9,0.4-0.9,0.9c0,0.5,0.4,0.9,0.9,0.9h4.8c0.5,0,0.9-0.4,0.9-0.9
		c0-0.5-0.4-0.9-0.9-0.9H50.6z M27.2,281.4c-0.3,0-0.6,0.1-0.8,0.3l-10.8,9.3c-0.2,0.2-0.4,0.4-0.4,0.7v1.9c0,0.5,0.5,0.9,1.1,0.9
		c0.6,0,1.1-0.4,1.1-0.9v-0.9H25c1.8,0,3.3-1.3,3.3-2.8v-6.6h28.5c0.6,0,1.1,0.4,1.1,0.9v45.4c0,0.5-0.5,0.9-1.1,0.9H32.6
		c-0.6,0-1.1,0.4-1.1,0.9c0,0.5,0.5,1,1.1,0.9h24.1c1.8,0,3.3-1.3,3.3-2.8v-45.4c0-1.6-1.5-2.8-3.3-2.8H27.2z M26.1,284.6v5.3
		c0,0.5-0.5,0.9-1.1,0.9h-6.1L26.1,284.6z M45.8,285.2c-5.4,0-9.9,4.2-9.9,9.3c0,5.1,4.4,9.3,9.9,9.3c5.4,0,9.9-4.2,9.9-9.3
		C55.7,289.3,51.2,285.2,45.8,285.2z M45.8,287.2c4.3,0,7.7,3.2,7.7,7.2c0,2-0.9,3.8-2.3,5.2c-0.5-2.3-2.7-4.1-5.4-4.1
		c-2.6,0-4.9,1.8-5.4,4.1c-1.4-1.3-2.3-3.1-2.3-5.2C38.1,290.4,41.5,287.2,45.8,287.2z M42.5,291.3c0,1.7,1.5,3.1,3.3,3.1
		c1.8,0,3.3-1.4,3.3-3.1c0-1.7-1.5-3.1-3.3-3.1C43.9,288.3,42.5,289.7,42.5,291.3z M46.9,291.3c0,0.6-0.5,1-1.1,1
		c-0.6,0-1.1-0.4-1.1-1c0-0.6,0.5-1,1.1-1C46.4,290.3,46.9,290.8,46.9,291.3z M45.8,297.5c1.8,0,3.3,1.4,3.3,3.1c0,0.1,0,0.2,0,0.3
		c-1,0.5-2.1,0.7-3.3,0.7c-1.2,0-2.3-0.3-3.3-0.7c0-0.1,0.1-0.2,0.1-0.3C42.5,298.9,44,297.5,45.8,297.5L45.8,297.5z M31.5,306.7
		c-0.6,0-1.1,0.4-1.1,0.9c0,0.5,0.5,0.9,1.1,0.9h13.2c0.6,0,1.1-0.4,1.1-0.9c0-0.5-0.5-0.9-1.1-0.9H31.5z M48.9,306.7
		c-0.6,0-1.1,0.4-1.1,0.9c0,0.5,0.5,0.9,1.1,0.9h5.8c0.6,0,1.1-0.4,1.1-0.9c0-0.5-0.5-0.9-1.1-0.9H48.9z M16.4,310.2H16
		c-0.5,0-0.9-0.4-0.9-0.9v-12.4c0-0.5,0.4-0.9,0.9-0.9h0.3c0.5,0,0.9,0.4,0.9,0.9v12.4C17.3,309.8,16.9,310.2,16.4,310.2z
		 M15.1,293.8l0,3.1c0,0,0-0.9,1.1-1c0,0,1,0,1.1,1l0-3.2c0,0,0,0.9-1.1,0.9C15.3,294.7,15.1,293.8,15.1,293.8z"/>
</g>
</svg>
