<svg id="레이어_1" data-name="레이어 1" xmlns="http://www.w3.org/2000/svg" viewBox="0 0 89.84 79.79"><defs><style>.cls-1,.cls-2{fill:#e9deef;}.cls-1,.cls-5{fill-rule:evenodd;}.cls-3{fill:#5b2077;}.cls-4,.cls-5{fill:none;stroke:#5b2077;stroke-linecap:round;stroke-linejoin:round;stroke-width:4px;}</style></defs><path class="cls-1" d="M69.21,25.35s4,1.28,3.21,3.53c0,0-6.74,4.81-7.38,1.12Z" transform="translate(-4.16 -10.6)"/><path class="cls-1" d="M62.47,43s1.93-6.9,7.07-5.94c0,0,6.25-.32,6.57,6.9C76.11,43.8,67,48,62.47,43Z" transform="translate(-4.16 -10.6)"/><path class="cls-1" d="M23.12,27.35c.19,0,15.51-13,15.51-13V28.51l-16.28.19Z" transform="translate(-4.16 -10.6)"/><rect class="cls-2" x="2.48" y="50.96" width="34.98" height="22.79"/><g id="layer1"><path id="path1153" class="cls-3" d="M43.22,63.82c-.16-2.56-2.09-4.65-4.33-4.65H8.56c-2.41,0-4.17,2.09-4.33,4.65-.16,5.62,0,11.24,0,16.85a4.71,4.71,0,0,0,4.49,5H38.89a4.82,4.82,0,0,0,4.49-5c-.16-5.61,0-11.23-.16-16.85ZM8.56,62.54H38.73a1.63,1.63,0,0,1,1.28.8L23.8,73.45,7.44,63.34A1.2,1.2,0,0,1,8.56,62.54ZM7.12,66.87,23,76.66a1.22,1.22,0,0,0,1.45,0l15.88-9.79v13.8a1.48,1.48,0,0,1-1.44,1.61H8.56a1.58,1.58,0,0,1-1.44-1.61ZM54.93,62.7a1.45,1.45,0,0,0,0,2.89H68.25a1.45,1.45,0,1,0,0-2.89Zm18-.16a1.45,1.45,0,0,0,0,2.89H84.78a1.45,1.45,0,0,0,0-2.89ZM53.65,72.81a1.45,1.45,0,0,0,0,2.89H71.3a1.45,1.45,0,0,0,0-2.89Zm23.27,0a1.45,1.45,0,1,0,0,2.89h7.7a1.45,1.45,0,0,0,0-2.89Zm-7.71-54.4c-8.66,0-15.88,6.74-15.88,14.92s7.06,14.93,15.88,14.93S85.1,41.52,85.1,33.33,77.88,18.41,69.21,18.41Zm0,3.21c6.9,0,12.36,5.14,12.36,11.55a11.82,11.82,0,0,1-3.69,8.35,8.72,8.72,0,0,0-8.67-6.58,8.85,8.85,0,0,0-8.66,6.58,11.26,11.26,0,0,1-3.69-8.35C56.86,26.76,62.31,21.62,69.21,21.62ZM63.92,28.2a5.31,5.31,0,0,0,10.59,0,5.18,5.18,0,0,0-5.3-5A5.28,5.28,0,0,0,63.92,28.2Zm7.06,0a1.77,1.77,0,1,1-1.77-1.6A1.76,1.76,0,0,1,71,28.2Zm-1.77,10a5.18,5.18,0,0,1,5.3,5v.48a11.55,11.55,0,0,1-5.3,1.13,14,14,0,0,1-5.29-1.13c0-.16.16-.32.16-.48a4.94,4.94,0,0,1,5.13-5ZM46.27,52.91a1.47,1.47,0,1,0,0,2.89H67.45a1.47,1.47,0,1,0,0-2.89Zm27.92,0a1.47,1.47,0,1,0,0,2.89H83.5a1.47,1.47,0,1,0,0-2.89Z" transform="translate(-4.16 -10.6)"/></g><path class="cls-4" d="M20.85,53.48V27.79L38.77,12.6H86.64S92,12.71,92,16.81V85s-1,3.36-3.82,3.36H47.54" transform="translate(-4.16 -10.6)"/><polyline class="cls-5" points="34.62 2 34.48 17.91 18.19 18.1"/></svg>