<svg width="81" height="81" viewBox="0 0 81 81" fill="none" xmlns="http://www.w3.org/2000/svg">
<path d="M47.4617 41.1328H28.0977V51.7641H47.4617V41.1328Z" fill="#E9DEEF"/>
<path d="M50.8789 63.4078H16.0742V70.3687H50.8789V63.4078Z" fill="#E9DEEF"/>
<path d="M76.0617 38.7281H64.418V60.4968H76.0617V38.7281Z" fill="#E9DEEF"/>
<path d="M19.3648 36.3234C27.1236 36.3234 33.4133 30.0337 33.4133 22.275C33.4133 14.5163 27.1236 8.22656 19.3648 8.22656C11.6061 8.22656 5.31641 14.5163 5.31641 22.275C5.31641 30.0337 11.6061 36.3234 19.3648 36.3234Z" fill="#E9DEEF"/>
<path d="M50.1187 36.3234C57.8775 36.3234 64.1672 30.0337 64.1672 22.275C64.1672 14.5163 57.8775 8.22656 50.1187 8.22656C42.36 8.22656 36.0703 14.5163 36.0703 22.275C36.0703 30.0337 42.36 36.3234 50.1187 36.3234Z" fill="#E9DEEF"/>
<path d="M56.5711 63.5344H10.2492C10.1227 63.5344 9.99609 63.4078 9.99609 63.2813V36.3234C9.99609 36.1969 10.1227 36.0703 10.2492 36.0703H56.318C56.4445 36.0703 56.5711 36.1969 56.5711 36.3234V63.2813C56.9508 63.4078 56.6977 63.5344 56.5711 63.5344Z" stroke="#5B2077" stroke-width="2" stroke-miterlimit="10"/>
<path d="M47.082 52.2703H28.3508C28.2242 52.2703 28.0977 52.1438 28.0977 52.0172V41.2594C28.0977 41.1328 28.2242 41.0063 28.3508 41.0063H47.082C47.2086 41.0063 47.3352 41.1328 47.3352 41.2594V51.8907C47.4617 52.0172 47.2086 52.2703 47.082 52.2703Z" stroke="#5B2077" stroke-width="2" stroke-miterlimit="10"/>
<path d="M50.8773 63.4078V70.6219C50.8773 70.7485 50.7508 70.875 50.6242 70.875H16.4523C16.3258 70.875 16.1992 70.7485 16.1992 70.6219V63.4078" stroke="#5B2077" stroke-width="2" stroke-miterlimit="10"/>
<path d="M19.2375 35.8172C26.7166 35.8172 32.7797 29.7542 32.7797 22.275C32.7797 14.7959 26.7166 8.73285 19.2375 8.73285C11.7584 8.73285 5.69531 14.7959 5.69531 22.275C5.69531 29.7542 11.7584 35.8172 19.2375 35.8172Z" stroke="#5B2077" stroke-width="2" stroke-miterlimit="10"/>
<path d="M49.6125 35.8172C57.0916 35.8172 63.1547 29.7542 63.1547 22.275C63.1547 14.7959 57.0916 8.73285 49.6125 8.73285C42.1334 8.73285 36.0703 14.7959 36.0703 22.275C36.0703 29.7542 42.1334 35.8172 49.6125 35.8172Z" stroke="#5B2077" stroke-width="2" stroke-miterlimit="10"/>
<path d="M49.6133 13.6688C51.8914 13.6688 54.1695 14.5548 55.6883 16.2001C57.207 17.7188 58.2195 19.9969 58.2195 22.2751" stroke="#5B2077" stroke-width="2" stroke-miterlimit="10"/>
<path d="M18.7305 13.6688C21.0086 13.6688 23.2867 14.5548 24.8055 16.2001C26.3242 17.7188 27.3367 19.9969 27.3367 22.2751" stroke="#5B2077" stroke-width="2" stroke-miterlimit="10"/>
<path d="M74.543 60.4969H64.5445C64.418 60.4969 64.418 60.3703 64.418 60.3703V38.8547C64.418 38.7281 64.5445 38.7281 64.5445 38.7281H74.543C74.6695 38.7281 74.6695 38.8547 74.6695 38.8547V60.3703C74.7961 60.3703 74.6695 60.4969 74.543 60.4969Z" stroke="#5B2077" stroke-width="2" stroke-miterlimit="10"/>
<path d="M63.2812 54.0422H56.9531" stroke="#5B2077" stroke-width="2" stroke-miterlimit="10"/>
<path d="M56.9531 45.6891H63.2812" stroke="#5B2077" stroke-width="2" stroke-miterlimit="10"/>
<path d="M67.0781 43.2844H72.1406" stroke="#5B2077" stroke-width="2" stroke-miterlimit="10"/>
<path d="M66.8242 49.6125H72.0133" stroke="#5B2077" stroke-width="2" stroke-miterlimit="10"/>
<path d="M66.6992 55.6875H71.8883" stroke="#5B2077" stroke-width="2" stroke-miterlimit="10"/>
<path d="M25.3125 57.9657H38.3484" stroke="#5B2077" stroke-width="2" stroke-miterlimit="10"/>
<path d="M22.2773 57.9657H16.582" stroke="#5B2077" stroke-width="2" stroke-miterlimit="10"/>
</svg>
