<svg width="81" height="81" viewBox="0 0 81 81" fill="none" xmlns="http://www.w3.org/2000/svg">
<path d="M51.8906 10.125H29.1094V19.2375H51.8906V10.125Z" fill="#E9DEEF"/>
<path d="M43.2844 7.59375H37.5891C37.0828 8.22656 36.7031 9.1125 36.7031 10.125C36.7031 12.15 38.3484 13.9219 40.5 13.9219C42.6516 13.9219 44.2969 12.15 44.2969 10.125C44.2969 9.1125 43.9172 8.22656 43.2844 7.59375Z" fill="#5B2077"/>
<path d="M65.8125 73.4062H15.1875C13.7953 73.4062 12.6562 72.2672 12.6562 70.875V10.125C12.6562 8.73281 13.7953 7.59375 15.1875 7.59375H65.8125C67.2047 7.59375 68.3438 8.73281 68.3438 10.125V70.875C68.3438 72.2672 67.2047 73.4062 65.8125 73.4062ZM15.1875 10.125V70.875H65.8125V10.125H15.1875Z" fill="#5B2077"/>
<path d="M51.8906 20.25H29.1094C27.7172 20.25 26.5781 19.1109 26.5781 17.7188V10.125C26.5781 8.73281 27.7172 7.59375 29.1094 7.59375H51.8906C53.2828 7.59375 54.4219 8.73281 54.4219 10.125V17.7188C54.4219 19.1109 53.2828 20.25 51.8906 20.25ZM29.1094 10.125V17.7188H51.8906V10.125H29.1094Z" fill="#5B2077"/>
<path d="M24.0469 34.1719C23.6672 34.1719 23.4141 34.0453 23.1609 33.7922L20.6297 31.2609C20.1234 30.7547 20.1234 29.9953 20.6297 29.4891C21.1359 28.9828 21.8953 28.9828 22.4016 29.4891L24.9328 32.0203C25.4391 32.5266 25.4391 33.2859 24.9328 33.7922C24.6797 34.0453 24.4266 34.1719 24.0469 34.1719Z" fill="#5B2077"/>
<path d="M24.0469 34.6781L20.6297 31.2609C20.1234 30.7547 20.1234 29.9953 20.6297 29.4891C21.1359 28.9828 21.8953 28.9828 22.4016 29.4891L24.0469 31.1344L28.2234 26.9578C28.7297 26.4516 29.4891 26.4516 29.9953 26.9578C30.5016 27.4641 30.5016 28.2234 29.9953 28.7297L24.0469 34.6781Z" fill="#5B2077"/>
<path d="M24.0469 44.2969C23.6672 44.2969 23.4141 44.1703 23.1609 43.9172L20.6297 41.3859C20.1234 40.8797 20.1234 40.1203 20.6297 39.6141C21.1359 39.1078 21.8953 39.1078 22.4016 39.6141L24.9328 42.1453C25.4391 42.6516 25.4391 43.4109 24.9328 43.9172C24.6797 44.1703 24.4266 44.2969 24.0469 44.2969Z" fill="#5B2077"/>
<path d="M24.0469 44.8031L20.6297 41.3859C20.1234 40.8797 20.1234 40.1203 20.6297 39.6141C21.1359 39.1078 21.8953 39.1078 22.4016 39.6141L24.0469 41.2594L28.2234 37.0828C28.7297 36.5766 29.4891 36.5766 29.9953 37.0828C30.5016 37.5891 30.5016 38.3484 29.9953 38.8547L24.0469 44.8031Z" fill="#5B2077"/>
<path d="M24.0469 54.4219C23.6672 54.4219 23.4141 54.2953 23.1609 54.0422L20.6297 51.5109C20.1234 51.0047 20.1234 50.2453 20.6297 49.7391C21.1359 49.2328 21.8953 49.2328 22.4016 49.7391L24.9328 52.2703C25.4391 52.7766 25.4391 53.5359 24.9328 54.0422C24.6797 54.2953 24.4266 54.4219 24.0469 54.4219Z" fill="#5B2077"/>
<path d="M24.0469 54.9281L20.6297 51.5109C20.1234 51.0047 20.1234 50.2453 20.6297 49.7391C21.1359 49.2328 21.8953 49.2328 22.4016 49.7391L24.0469 51.3844L28.2234 47.2078C28.7297 46.7016 29.4891 46.7016 29.9953 47.2078C30.5016 47.7141 30.5016 48.4734 29.9953 48.9797L24.0469 54.9281Z" fill="#5B2077"/>
<path d="M24.0469 64.5469C23.6672 64.5469 23.4141 64.4203 23.1609 64.1672L20.6297 61.6359C20.1234 61.1297 20.1234 60.3703 20.6297 59.8641C21.1359 59.3578 21.8953 59.3578 22.4016 59.8641L24.9328 62.3953C25.4391 62.9016 25.4391 63.6609 24.9328 64.1672C24.6797 64.4203 24.4266 64.5469 24.0469 64.5469Z" fill="#5B2077"/>
<path d="M24.0469 65.0531L20.6297 61.6359C20.1234 61.1297 20.1234 60.3703 20.6297 59.8641C21.1359 59.3578 21.8953 59.3578 22.4016 59.8641L24.0469 61.5094L28.2234 57.3328C28.7297 56.8266 29.4891 56.8266 29.9953 57.3328C30.5016 57.8391 30.5016 58.5984 29.9953 59.1047L24.0469 65.0531Z" fill="#5B2077"/>
<path d="M59.4844 31.6406H40.5C39.7406 31.6406 39.2344 31.1344 39.2344 30.375C39.2344 29.6156 39.7406 29.1094 40.5 29.1094H59.4844C60.2437 29.1094 60.75 29.6156 60.75 30.375C60.75 31.1344 60.2437 31.6406 59.4844 31.6406Z" fill="#5B2077"/>
<path d="M59.4844 41.7656H40.5C39.7406 41.7656 39.2344 41.2594 39.2344 40.5C39.2344 39.7406 39.7406 39.2344 40.5 39.2344H59.4844C60.2437 39.2344 60.75 39.7406 60.75 40.5C60.75 41.2594 60.2437 41.7656 59.4844 41.7656Z" fill="#5B2077"/>
<path d="M59.4844 51.8906H40.5C39.7406 51.8906 39.2344 51.3844 39.2344 50.625C39.2344 49.8656 39.7406 49.3594 40.5 49.3594H59.4844C60.2437 49.3594 60.75 49.8656 60.75 50.625C60.75 51.3844 60.2437 51.8906 59.4844 51.8906Z" fill="#5B2077"/>
<path d="M59.4844 62.0156H40.5C39.7406 62.0156 39.2344 61.5094 39.2344 60.75C39.2344 59.9906 39.7406 59.4844 40.5 59.4844H59.4844C60.2437 59.4844 60.75 59.9906 60.75 60.75C60.75 61.5094 60.2437 62.0156 59.4844 62.0156Z" fill="#5B2077"/>
</svg>
