<svg height="477.60001pt" viewBox="0 0 477.60001 477.60001" width="477.60001pt" xmlns="http://www.w3.org/2000/svg"><path d="m477.601562 238.800781c0 131.886719-106.914062 238.800781-238.800781 238.800781s-238.800781-106.914062-238.800781-238.800781 106.914062-238.800781 238.800781-238.800781 238.800781 106.914062 238.800781 238.800781zm0 0" fill="#382b73"/><path d="m445.398438 238.800781c0 114.101563-92.496094 206.597657-206.597657 206.597657-114.101562 0-206.597656-92.496094-206.597656-206.597657 0-114.101562 92.496094-206.597656 206.597656-206.597656 114.101563 0 206.597657 92.496094 206.597657 206.597656zm0 0" fill="#473080"/><path d="m332.472656 132.492188c-1.464844-7.035157-7.703125-12.328126-15.175781-12.328126h-55.171875l-12.402344-12.398437h-109.421875c-8.5625 0-15.5 6.941406-15.5 15.503906v226.664063c0 7.59375 5.464844 13.902344 12.671875 15.230468 1.140625 6.179688 5.929688 11.070313 12.058594 12.347657 1.464844 7.035156 7.699219 12.328125 15.175781 12.328125h164.589844c8.5625 0 15.503906-6.945313 15.503906-15.503906v-226.667969c0-7.472657-5.289062-13.707031-12.328125-15.175781zm0 0" fill="#382b73"/><path d="m329.296875 375.835938h-164.589844c-8.5625 0-15.503906-6.941407-15.503906-15.5v-220.464844c0-8.5625 6.941406-15.503906 15.503906-15.503906h164.589844c8.5625 0 15.503906 6.941406 15.503906 15.503906v220.460937c0 8.5625-6.941406 15.503907-15.503906 15.503907zm0 0" fill="#d1d3d4"/><path d="m329.296875 369.632812h-164.589844c-8.5625 0-15.503906-6.9375-15.503906-15.5v-220.460937c0-8.5625 6.941406-15.503906 15.503906-15.503906h164.589844c8.5625 0 15.503906 6.941406 15.503906 15.503906v220.460937c0 8.5625-6.941406 15.5-15.503906 15.5zm0 0" fill="#fff"/><path d="m317.296875 363.835938h-164.589844c-8.5625 0-15.503906-6.941407-15.503906-15.5v-220.464844c0-8.5625 6.941406-15.503906 15.503906-15.503906h164.589844c8.5625 0 15.503906 6.941406 15.503906 15.503906v220.460937c0 8.5625-6.941406 15.503907-15.503906 15.503907zm0 0" fill="#d1d3d4"/><path d="m317.296875 357.632812h-164.589844c-8.5625 0-15.503906-6.9375-15.503906-15.5v-220.460937c0-8.5625 6.941406-15.503906 15.503906-15.503906h164.589844c8.5625 0 15.503906 6.941406 15.503906 15.503906v220.460937c0 8.5625-6.941406 15.5-15.503906 15.5zm0 0" fill="#e6e7e8"/><path d="m255.921875 99.964844h-115.621094c-8.5625 0-15.5 6.941406-15.5 15.503906v220.460938c0 8.5625 6.9375 15.503906 15.5 15.503906h164.59375c8.5625 0 15.5-6.941406 15.5-15.503906v-171.488282zm0 0" fill="#d1d3d4"/><path d="m249.722656 93.765625h-109.421875c-8.5625 0-15.5 6.9375-15.5 15.5v220.460937c0 8.5625 6.9375 15.503907 15.5 15.503907h164.59375c8.5625 0 15.5-6.941407 15.5-15.503907v-165.285156zm0 0" fill="#fff"/><g fill="#d0d2d3"><path d="m289.570312 197.792969h-133.945312c-3.421875 0-6.199219-2.773438-6.199219-6.199219s2.773438-6.203125 6.199219-6.203125h133.945312c3.425782 0 6.203126 2.773437 6.203126 6.203125 0 3.425781-2.777344 6.199219-6.203126 6.199219zm0 0"/><path d="m289.570312 235.414062h-133.945312c-3.421875 0-6.199219-2.777343-6.199219-6.203124 0-3.421876 2.773438-6.199219 6.199219-6.199219h133.945312c3.425782 0 6.203126 2.773437 6.203126 6.199219 0 3.425781-2.777344 6.203124-6.203126 6.203124zm0 0"/><path d="m289.570312 273.035156h-133.945312c-3.421875 0-6.199219-2.777344-6.199219-6.203125s2.773438-6.203125 6.199219-6.203125h133.945312c3.425782 0 6.203126 2.777344 6.203126 6.203125s-2.777344 6.203125-6.203126 6.203125zm0 0"/><path d="m289.570312 310.65625h-133.945312c-3.421875 0-6.199219-2.777344-6.199219-6.203125 0-3.421875 2.773438-6.199219 6.199219-6.199219h133.945312c3.425782 0 6.203126 2.773438 6.203126 6.199219s-2.777344 6.203125-6.203126 6.203125zm0 0"/></g><path d="m320.398438 164.441406h-55.171876c-8.5625 0-15.503906-6.941406-15.503906-15.503906v-55.171875zm0 0" fill="#bbbdbf"/></svg>