<svg width="81" height="81" viewBox="0 0 81 81" fill="none" xmlns="http://www.w3.org/2000/svg">
<path d="M34.4258 57.3329C47.357 57.3329 57.8398 46.8501 57.8398 33.9188C57.8398 20.9876 47.357 10.5047 34.4258 10.5047C21.4946 10.5047 11.0117 20.9876 11.0117 33.9188C11.0117 46.8501 21.4946 57.3329 34.4258 57.3329Z" fill="#E9DEEF"/>
<path d="M23.6668 23.7937C27.5902 19.8703 32.1465 17.0859 36.9558 15.314C31.5136 15.0609 25.6918 17.0859 21.2621 21.5156C16.7058 26.0719 14.6808 31.8937 15.0605 37.4625C16.8324 32.4 19.6168 27.7172 23.6668 23.7937Z" fill="#5B2077"/>
<path d="M34.6781 8.35315C20.7562 8.35315 9.49219 19.6172 9.49219 33.5391C9.49219 47.461 20.7562 58.7251 34.6781 58.7251C39.9937 58.7251 44.9297 57.0798 49.1063 54.1689L68.0906 73.1533C68.2172 73.2798 68.5969 73.2798 68.7234 73.1533L72.2672 69.6095C72.3937 69.483 72.3937 69.1033 72.2672 68.9767L53.5359 50.1189C57.4594 45.6892 59.8641 39.8673 59.8641 33.4126C59.8641 19.6172 48.6 8.35315 34.6781 8.35315ZM34.6781 55.6876C22.4016 55.6876 12.5297 45.6892 12.5297 33.5391C12.5297 21.3891 22.5281 11.2641 34.6781 11.2641C46.8281 11.2641 56.9531 21.2625 56.9531 33.4126C56.9531 45.5626 46.9547 55.6876 34.6781 55.6876Z" fill="#5B2077"/>
</svg>
