<svg height="477.60001pt" viewBox="0 0 477.60001 477.60001" width="477.60001pt" xmlns="http://www.w3.org/2000/svg"><path d="m477.601562 238.800781c0 131.886719-106.914062 238.800781-238.800781 238.800781s-238.800781-106.914062-238.800781-238.800781 106.914062-238.800781 238.800781-238.800781 238.800781 106.914062 238.800781 238.800781zm0 0" fill="#382b73"/><path d="m445.398438 238.800781c0 114.101563-92.496094 206.597657-206.597657 206.597657-114.101562 0-206.597656-92.496094-206.597656-206.597657 0-114.101562 92.496094-206.597656 206.597656-206.597656 114.101563 0 206.597657 92.496094 206.597657 206.597656zm0 0" fill="#473080"/><path d="m389.152344 288.300781c-.054688-1.382812-.136719-2.765625-.214844-4.152343-.082031-.839844-.136719-1.707032-.246094-2.550782-4.75-44.164062-42.996094-78.828125-88.328125-78.09375-13.347656.210938-25.960937 3.4375-37.214843 9 0-.015625 0-.035156 0-.050781v-.136719c-.054688-1.574218-.136719-3.121094-.246094-4.640625-.050782-.761719-.132813-1.546875-.214844-2.308593-4.644531-43.402344-41.015625-77.308594-85.453125-78.011719-45.332031-.734375-83.578125 33.929687-88.332031 78.09375-.105469.84375-.160156 1.710937-.242188 2.554687-.082031 1.382813-.164062 2.765625-.21875 4.148438-.027344.84375-.027344 1.710937-.027344 2.578125 0 .898437.027344 1.792969.054688 2.691406 0 .675781.027344 1.328125.082031 1.980469.160157 3.09375.488281 6.160156.949219 9.148437.136719.894531.296875 1.792969.488281 2.714844.949219 5.046875 2.363281 9.960937 4.152344 14.65625.191406.515625.410156 1.03125.597656 1.546875.300781.734375.625 1.464844.953125 2.195312.164063.410157.324219.789063.515625 1.167969.488281 1.085938.976563 2.117188 1.519531 3.175781.515626 1.03125 1.058594 2.0625 1.65625 3.09375.160157.351563.351563.707032.570313 1.058594.675781 1.167969 1.382813 2.332032 2.117187 3.472656.378907.652344.785157 1.277344 1.222657 1.902344l-9.175781 25.675782c-.839844 2.390624.054687 4.726562 1.738281 6.082031 1.332031 1.058593 3.148437 1.519531 4.996093.921875.082032 0 .132813-.027344.214844-.054688l25.625-9.148437c13.980469 9.527343 30.890625 15.09375 49.105469 15.09375 4.53125 0 8.957031-.355469 13.300781-1.003907 8.988282-1.375 17.515625-4.132812 25.382813-8.023437.058593 2.265625.175781 4.515625.402343 6.726563 4.015626 39.660156 34.554688 71.472656 73.613282 77.445312 4.347656.652344 8.769531 1.003906 13.304687 1.003906 18.214844 0 35.125-5.566406 49.101563-15.09375l25.625 9.148438c.082031.027344.136718.054687.21875.054687 1.847656.597657 3.664062.136719 4.992187-.921875 1.683594-1.355468 2.578125-3.691406 1.738281-6.078125l-9.175781-25.679687c.433594-.625.84375-1.246094 1.222657-1.898438.734374-1.140625 1.4375-2.308594 2.117187-3.476562.21875-.351563.410156-.703125.570313-1.058594.597656-1.03125 1.140624-2.0625 1.65625-3.09375.542968-1.058594 1.03125-2.089844 1.519531-3.175781.191406-.378907.351562-.761719.515625-1.167969.328125-.734375.652344-1.464844.953125-2.195312.1875-.515626.40625-1.03125.597656-1.550782 1.789063-4.695312 3.203125-9.609375 4.152344-14.65625.191406-.921875.351562-1.816406.488281-2.714844.460938-2.984374.785156-6.050781.949219-9.148437.054687-.652344.082031-1.304687.082031-1.980469.027344-.894531.054688-1.792968.054688-2.6875 0-.867187 0-1.738281-.027344-2.578125zm0 0" fill="#382b73"/><path d="m389.179688 276.878906c0 .898438-.027344 1.792969-.054688 2.6875 0 .679688-.027344 1.332032-.082031 1.984375-.160157 3.09375-.488281 6.160157-.949219 9.148438-.136719.894531-.296875 1.789062-.488281 2.710937-.949219 5.050782-2.363281 9.964844-4.152344 14.660156-.191406.515626-.410156 1.03125-.597656 1.546876-.296875.734374-.625 1.464843-.949219 2.195312-.164062.410156-.328125.789062-.515625 1.167969-.492187 1.085937-.980469 2.121093-1.519531 3.175781-.515625 1.035156-1.058594 2.066406-1.65625 3.097656-.164063.351563-.351563.703125-.570313 1.054688-.679687 1.167968-1.382812 2.335937-2.117187 3.476562-.382813.652344-.789063 1.273438-1.222656 1.898438l9.171874 25.679687c.84375 2.386719-.050781 4.722657-1.738281 6.078125-1.328125 1.058594-3.144531 1.519532-4.992187.921875-.082032 0-.136719-.027343-.21875-.054687l-25.625-9.148438c-13.976563 9.53125-30.886719 15.09375-49.101563 15.09375-4.535156 0-8.957031-.355468-13.300781-1.003906-38.871094-6.054688-69.519531-38.085938-73.617188-77.445312-.296874-2.929688-.460937-5.917969-.460937-8.929688 0-.027344 0-.027344 0-.054688v-1.167968c0-.351563 0-.703125.027344-1.054688v-.136718c.054687-1.574219.136719-3.121094.246093-4.644532.050782-.757812.132813-1.546875.214844-2.304687 4.644532-43.40625 41.019532-77.308594 85.453125-78.015625 45.332031-.730469 83.578125 33.929687 88.328125 78.097656.109375.839844.164063 1.707031.246094 2.550781.082031 1.382813.160156 2.765625.214844 4.152344.027344.84375.027344 1.714844.027344 2.582031zm0 0" fill="#fff"/><path d="m389.179688 276.878906c0 .898438-.027344 1.792969-.054688 2.6875 0 .679688-.027344 1.332032-.082031 1.984375-.160157 3.09375-.488281 6.160157-.949219 9.148438-.136719.894531-.296875 1.789062-.488281 2.710937-.949219 5.050782-2.363281 9.964844-4.152344 14.660156-.191406.515626-.410156 1.03125-.597656 1.546876-.296875.734374-.625 1.464843-.949219 2.195312-.164062.382812-.328125.789062-.515625 1.167969-.492187 1.085937-.980469 2.121093-1.519531 3.175781-.515625 1.035156-1.058594 2.066406-1.65625 3.097656-.164063.351563-.351563.703125-.570313 1.054688-.679687 1.167968-1.382812 2.335937-2.117187 3.476562-3.910156 6.160156-8.578125 11.777344-13.871094 16.773438l20.085938 16.886718c-1.332032 1.058594-3.148438 1.519532-4.996094.921876l-25.839844-9.203126c-13.980469 9.527344-30.890625 15.09375-49.105469 15.09375-4.53125 0-8.957031-.355468-13.296875-1.003906-39.0625-5.972656-69.601562-37.789062-73.617187-77.445312-.296875-2.933594-.460938-5.917969-.460938-8.929688 0-.027344 0-.027344 0-.054687 0-.761719 0-1.496094.027344-2.226563v-.136718c.054687-1.574219.136719-3.121094.242187-4.640626.054688-.761718.136719-1.546874.21875-2.308593 4.695313 43.867187 41.800782 78.015625 86.890626 78.015625 45.085937 0 82.164062-34.09375 86.890624-77.933594.105469.84375.164063 1.710938.242188 2.550781.109375 1.386719.164062 2.742188.21875 4.152344.023438.84375.023438 1.714844.023438 2.582031zm0 0" fill="#d1d3d4"/><path d="m336.132812 239.148438v1.078124c0 2.605469-2.109374 4.714844-4.714843 4.714844h-61.976563c-2.605468 0-4.71875-2.113281-4.71875-4.714844v-1.078124c0-2.605469 2.113282-4.714844 4.71875-4.714844h61.976563c2.605469 0 4.714843 2.109375 4.714843 4.714844zm-4.71875 18.957031h-61.976562c-2.605469 0-4.714844 2.113281-4.714844 4.714843v1.078126c0 2.605468 2.113282 4.714843 4.714844 4.714843h61.976562c2.605469 0 4.71875-2.109375 4.71875-4.714843v-1.078126c0-2.601562-2.109374-4.714843-4.71875-4.714843zm0 23.675781h-61.976562c-2.605469 0-4.714844 2.109375-4.714844 4.714844v1.078125c0 2.605469 2.113282 4.714843 4.714844 4.714843h61.976562c2.605469 0 4.71875-2.109374 4.71875-4.714843v-1.078125c0-2.605469-2.109374-4.714844-4.71875-4.714844zm0 23.671875h-61.976562c-2.605469 0-4.714844 2.113281-4.714844 4.71875v1.074219c0 2.605468 2.113282 4.714844 4.714844 4.714844h61.976562c2.605469 0 4.71875-2.109376 4.71875-4.714844v-1.074219c0-2.605469-2.109374-4.71875-4.71875-4.71875zm0 0" fill="#d1d3d4"/><path d="m336.132812 235.148438v1.078124c0 2.605469-2.109374 4.714844-4.714843 4.714844h-61.976563c-2.605468 0-4.71875-2.113281-4.71875-4.714844v-1.078124c0-2.601563 2.113282-4.714844 4.71875-4.714844h61.976563c2.605469 0 4.714843 2.109375 4.714843 4.714844zm-4.71875 18.957031h-61.976562c-2.605469 0-4.714844 2.113281-4.714844 4.714843v1.078126c0 2.605468 2.113282 4.714843 4.714844 4.714843h61.976562c2.605469 0 4.71875-2.109375 4.71875-4.714843v-1.078126c0-2.601562-2.109374-4.714843-4.71875-4.714843zm0 23.675781h-61.976562c-2.605469 0-4.714844 2.109375-4.714844 4.714844v1.078125c0 2.605469 2.113282 4.714843 4.714844 4.714843h61.976562c2.605469 0 4.71875-2.109374 4.71875-4.714843v-1.078125c0-2.605469-2.109374-4.714844-4.71875-4.714844zm0 23.671875h-61.976562c-2.605469 0-4.714844 2.113281-4.714844 4.71875v1.074219c0 2.605468 2.113282 4.714844 4.714844 4.714844h61.976562c2.605469 0 4.71875-2.109376 4.71875-4.714844v-1.074219c0-2.605469-2.109374-4.71875-4.71875-4.71875zm0 0" fill="#1caee4"/><g fill="#009add"><path d="m331.414062 308.28125h-61.976562c-2.148438 0-3.941406-1.445312-4.511719-3.414062-.121093.417968-.207031.847656-.207031 1.304687v1.074219c0 2.609375 2.113281 4.71875 4.71875 4.71875h61.976562c2.605469 0 4.714844-2.113282 4.714844-4.71875v-1.074219c0-.457031-.082031-.886719-.203125-1.304687-.566406 1.96875-2.359375 3.414062-4.511719 3.414062zm0 0"/><path d="m331.414062 284.609375h-61.976562c-2.148438 0-3.945312-1.449219-4.511719-3.414063-.121093.414063-.207031.847657-.207031 1.300782v1.078125c0 2.605469 2.113281 4.71875 4.71875 4.71875h61.976562c2.605469 0 4.714844-2.113281 4.714844-4.71875v-1.078125c0-.453125-.082031-.882813-.203125-1.300782-.566406 1.964844-2.359375 3.414063-4.511719 3.414063zm0 0"/><path d="m331.414062 237.257812h-61.976562c-2.148438 0-3.941406-1.445312-4.511719-3.414062-.121093.417969-.207031.847656-.207031 1.304688v1.074218c0 2.605469 2.113281 4.71875 4.71875 4.71875h61.976562c2.605469 0 4.714844-2.113281 4.714844-4.71875v-1.074218c0-.457032-.082031-.886719-.203125-1.304688-.566406 1.96875-2.359375 3.414062-4.511719 3.414062zm0 0"/><path d="m331.414062 260.933594h-61.976562c-2.148438 0-3.941406-1.445313-4.511719-3.414063-.121093.417969-.207031.847657-.207031 1.304688v1.074219c0 2.605468 2.113281 4.71875 4.71875 4.71875h61.976562c2.605469 0 4.714844-2.113282 4.714844-4.71875v-1.074219c0-.457031-.082031-.886719-.203125-1.304688-.566406 1.964844-2.359375 3.414063-4.511719 3.414063zm0 0"/></g><path d="m88.421875 200.730469c0 .898437.027344 1.792969.050781 2.691406 0 .675781.03125 1.328125.082032 1.980469.164062 3.09375.488281 6.160156.953124 9.148437.132813.894531.296876 1.792969.484376 2.714844.953124 5.046875 2.363281 9.960937 4.15625 14.65625.191406.515625.40625 1.03125.597656 1.546875.296875.734375.625 1.464844.949218 2.195312.164063.410157.328126.789063.515626 1.171876.488281 1.085937.980468 2.117187 1.519531 3.175781.515625 1.03125 1.058593 2.058593 1.65625 3.09375.164062.351562.351562.703125.570312 1.054687.679688 1.167969 1.386719 2.335938 2.117188 3.476563.382812.652343.789062 1.273437 1.222656 1.898437l-9.171875 25.679688c-.84375 2.386718.054688 4.722656 1.738281 6.078125 1.328125 1.058593 3.148438 1.519531 4.992188.921875.082031 0 .136719-.027344.21875-.054688l25.625-9.144531c13.980469 9.527344 30.890625 15.089844 49.101562 15.089844 4.535157 0 8.960938-.351563 13.304688-1.003907 38.867187-6.054687 69.515625-38.082031 73.613281-77.445312.300781-2.929688.464844-5.917969.464844-8.929688 0-.027343 0-.027343 0-.050781v-1.167969c0-.355468 0-.707031-.03125-1.058593v-.136719c-.050782-1.574219-.132813-3.121094-.242188-4.640625-.054687-.761719-.136718-1.550781-.21875-2.308594-4.640625-43.40625-41.015625-77.308593-85.453125-78.015625-45.332031-.726562-83.578125 33.9375-88.332031 78.101563-.105469.839843-.160156 1.707031-.242188 2.550781-.082031 1.382812-.160156 2.769531-.21875 4.152344-.023437.839844-.023437 1.710937-.023437 2.578125zm0 0" fill="#fff"/><path d="m174.386719 230.390625c-4.351563 0-7.015625 1.929687-8.488281 3.550781-1.964844 2.160156-3.003907 4.894532-3.003907 7.914063 0 3.023437 1.070313 5.746093 3.089844 7.871093 1.46875 1.546876 4.121094 3.390626 8.402344 3.390626 4.164062 0 6.816406-1.789063 8.308593-3.289063 2.125-2.140625 3.253907-4.898437 3.253907-7.972656 0-3.066407-1.09375-5.835938-3.160157-8.007813-2.152343-2.261718-5.058593-3.457031-8.402343-3.457031zm0 0" fill="#d1d3d4"/><path d="m198.496094 149.796875c-5.519532-5.570313-12.96875-8.394531-22.144532-8.394531-8.871093 0-16.359374 2.707031-22.261718 8.039062-6.058594 5.472656-9.183594 12.765625-9.289063 21.675782-.039062 3.40625 2.710938 6.1875 6.113281 6.1875h7.804688c3.335938 0 6.058594-2.675782 6.117188-6.011719.058593-3.410157 1.039062-5.960938 3.003906-7.789063 2.054687-1.917968 4.839844-2.851562 8.515625-2.851562 3.453125 0 5.964843.894531 7.679687 2.734375 1.832032 1.96875 2.722656 4.8125 2.722656 8.699219 0 2.058593-.246093 3.867187-.730468 5.375-.484375 1.511718-1.175782 2.914062-2.054688 4.167968-.707031 1.003906-2.609375 3.242188-7.648437 8.199219-4.957031 4.875-8.167969 9.160156-9.8125 13.105469-1.625 3.894531-2.46875 8.703125-2.570313 14.691406v.003906c-.058594 3.417969 2.695313 6.222656 6.117188 6.222656h7.804687c3.378907 0 6.117188-2.738281 6.117188-6.117187v-.003906c0-6.140625 1.714843-10.441407 5.425781-13.574219 6.578125-6.039062 10.988281-11.316406 13.488281-16.125 2.585938-4.988281 3.898438-10.398438 3.898438-16.082031 0-9.144531-2.792969-16.597657-8.296875-22.152344zm0 0" fill="#d1d3d4"/><path d="m174.386719 223.8125c-4.351563 0-7.015625 1.929688-8.488281 3.550781-1.964844 2.160157-3.003907 4.894531-3.003907 7.914063 0 3.023437 1.070313 5.746094 3.089844 7.871094 1.46875 1.546874 4.121094 3.390624 8.402344 3.390624 4.164062 0 6.816406-1.789062 8.308593-3.289062 2.125-2.140625 3.253907-4.898438 3.253907-7.972656 0-3.066406-1.09375-5.835938-3.160157-8.007813-2.152343-2.261719-5.058593-3.457031-8.402343-3.457031zm0 0" fill="#ef5a9d"/><path d="m182.691406 236.671875c-1.488281 1.5-4.144531 3.289063-8.304687 3.289063-4.28125 0-6.933594-1.84375-8.402344-3.390626-1.257813-1.320312-2.101563-2.894531-2.59375-4.609374-.296875 1.058593-.5 2.15625-.5 3.316406 0 3.023437 1.070313 5.746094 3.09375 7.871094 1.46875 1.546874 4.117187 3.390624 8.402344 3.390624 4.160156 0 6.816406-1.789062 8.304687-3.289062 2.128906-2.140625 3.253906-4.898438 3.253906-7.972656 0-1.160156-.207031-2.253906-.507812-3.316406-.515625 1.757812-1.410156 3.367187-2.746094 4.710937zm0 0" fill="#e43d91"/><path d="m198.496094 143.21875c-5.519532-5.570312-12.96875-8.394531-22.144532-8.394531-8.871093 0-16.359374 2.707031-22.261718 8.039062-6.058594 5.476563-9.183594 12.765625-9.289063 21.675781-.039062 3.40625 2.710938 6.191407 6.113281 6.191407h7.804688c3.335938 0 6.058594-2.675781 6.117188-6.011719.058593-3.414062 1.039062-5.960938 3.003906-7.792969 2.054687-1.914062 4.839844-2.847656 8.515625-2.847656 3.453125 0 5.964843.894531 7.679687 2.734375 1.832032 1.964844 2.722656 4.8125 2.722656 8.699219 0 2.054687-.246093 3.863281-.730468 5.375s-1.175782 2.914062-2.054688 4.164062c-.707031 1.003907-2.609375 3.242188-7.648437 8.203125-4.957031 4.871094-8.167969 9.160156-9.8125 13.105469-1.625 3.894531-2.46875 8.699219-2.570313 14.691406-.058594 3.417969 2.695313 6.222657 6.117188 6.222657h7.804687c3.378907 0 6.117188-2.738282 6.117188-6.117188 0-6.140625 1.714843-10.445312 5.425781-13.574219 6.578125-6.042969 10.988281-11.316406 13.488281-16.128906 2.585938-4.988281 3.898438-10.398437 3.898438-16.078125 0-9.144531-2.792969-16.597656-8.296875-22.15625zm0 0" fill="#ef5a9d"/><path d="m167.839844 156.925781c2.054687-1.917969 4.839844-2.851562 8.515625-2.851562 3.453125 0 5.964843.894531 7.679687 2.734375 1.273438 1.367187 2.0625 3.1875 2.441406 5.457031.167969-1.027344.28125-2.125.28125-3.332031 0-3.886719-.890624-6.734375-2.71875-8.699219-1.714843-1.839844-4.230468-2.734375-7.683593-2.734375-3.671875 0-6.457031.933594-8.511719 2.847656-1.964844 1.832032-2.949219 4.378906-3.007812 7.792969-.058594 3.335937-2.777344 6.011719-6.117188 6.011719h-7.800781c-2.671875 0-4.914063-1.722656-5.753907-4.105469-.199218 1.453125-.34375 2.9375-.363281 4.488281v.003906c-.039062 3.40625 2.710938 6.1875 6.117188 6.1875h7.800781c3.339844 0 6.058594-2.675781 6.117188-6.011718.058593-3.410156 1.039062-5.960938 3.003906-7.789063zm0 0" fill="#e43d91"/><path d="m202.890625 174.878906c-2.496094 4.808594-6.90625 10.085938-13.484375 16.128906-3.714844 3.125-5.429688 7.429688-5.429688 13.570313v.003906c0 3.378907-2.738281 6.117188-6.113281 6.117188h-7.808593c-2.777344 0-5.089844-1.863281-5.835938-4.394531-.148438 1.5-.25 3.066406-.277344 4.746093-.058594 3.421875 2.695313 6.222657 6.117188 6.222657h7.804687c3.378907 0 6.117188-2.738282 6.117188-6.117188 0-6.140625 1.714843-10.445312 5.425781-13.574219 6.578125-6.042969 10.988281-11.316406 13.488281-16.128906 2.585938-4.988281 3.898438-10.398437 3.898438-16.078125 0-1.257812-.0625-2.476562-.167969-3.667969-.378906 4.617188-1.59375 9.046875-3.734375 13.171875zm0 0" fill="#e43d91"/><path d="m88.421875 200.730469c0 .898437.027344 1.792969.050781 2.691406 0 .675781.03125 1.328125.082032 1.980469.164062 3.09375.488281 6.160156.953124 9.148437.132813.894531.296876 1.792969.484376 2.714844.953124 5.046875 2.363281 9.960937 4.15625 14.65625.191406.515625.40625 1.03125.597656 1.546875.296875.734375.625 1.464844.949218 2.195312.164063.382813.328126.789063.515626 1.171876.488281 1.085937.980468 2.117187 1.519531 3.175781.515625 1.03125 1.058593 2.058593 1.65625 3.09375.164062.351562.351562.703125.570312 1.054687.679688 1.167969 1.386719 2.335938 2.117188 3.476563 3.910156 6.160156 8.578125 11.777343 13.871093 16.773437l-20.085937 16.886719c1.332031 1.058594 3.148437 1.519531 4.996094.921875l25.839843-9.203125c13.980469 9.527344 30.890626 15.09375 49.105469 15.09375 4.535157 0 8.957031-.355469 13.300781-1.003906 39.0625-5.972657 69.597657-37.789063 73.617188-77.445313.296875-2.933594.460938-5.917968.460938-8.929687 0-.027344 0-.027344 0-.054688 0-.761719 0-1.492187-.027344-2.226562v-.136719c-.054688-1.574219-.136719-3.121094-.246094-4.640625-.050781-.761719-.132812-1.546875-.214844-2.308594-4.699218 43.867188-41.804687 78.015625-86.890625 78.015625-45.089843 0-82.167969-34.09375-86.890625-77.933594-.109375.84375-.164062 1.710938-.246094 2.550782-.105468 1.386718-.160156 2.742187-.214843 4.152344-.027344.84375-.027344 1.714843-.027344 2.582031zm0 0" fill="#d1d3d4"/></svg>