<svg width="82" height="81" viewBox="0 0 82 81" fill="none" xmlns="http://www.w3.org/2000/svg">
<path d="M41.8953 8.35315C23.8297 8.35315 9.35156 22.7813 9.35156 40.5C9.35156 58.2188 23.9578 72.6469 41.8953 72.6469C59.8328 72.6469 74.3109 58.2188 74.3109 40.5C74.3109 22.7813 59.7047 8.35315 41.8953 8.35315ZM41.8953 69.4828C25.6234 69.4828 12.4266 56.4469 12.4266 40.5C12.4266 24.5531 25.6234 11.5172 41.8953 11.5172C58.1672 11.5172 71.2359 24.5531 71.2359 40.5C71.2359 56.4469 58.0391 69.4828 41.8953 69.4828ZM43.1766 56.0672C43.1766 56.9531 42.4078 57.7125 41.5109 57.7125C40.6141 57.7125 39.8453 56.9531 39.8453 56.0672C39.8453 55.1813 40.6141 54.4219 41.5109 54.4219C42.4078 54.4219 43.1766 55.1813 43.1766 56.0672ZM50.2234 33.1594C50.2234 36.0703 48.5578 38.8547 45.3547 40.6266C43.0484 42.0188 43.1766 43.5375 43.1766 43.6641V43.7906V47.7141C43.1766 48.6 42.5359 49.2328 41.6391 49.2328C40.7422 49.2328 39.9734 48.6 39.9734 47.7141V43.9172C39.8453 42.525 40.6141 39.9938 43.6891 38.0953C45.2266 37.2094 47.0203 35.5641 47.0203 33.1594C47.0203 30.2485 44.5859 27.9703 41.7672 27.9703C38.8203 27.9703 36.5141 30.375 36.5141 33.1594C36.5141 34.0453 35.8734 34.6781 34.9766 34.6781C34.0797 34.6781 33.4391 34.0453 33.4391 33.1594C33.4391 28.4766 37.1547 24.8063 41.8953 24.8063C46.6359 24.8063 50.2234 28.6031 50.2234 33.1594Z" fill="#5B2077"/>
</svg>
