<svg height="477.60001pt" viewBox="0 0 477.60001 477.60001" width="477.60001pt" xmlns="http://www.w3.org/2000/svg"><path d="m477.601562 238.800781c0 131.886719-106.914062 238.800781-238.800781 238.800781s-238.800781-106.914062-238.800781-238.800781 106.914062-238.800781 238.800781-238.800781 238.800781 106.914062 238.800781 238.800781zm0 0" fill="#382b73"/><path d="m445.398438 238.800781c0 114.101563-92.496094 206.597657-206.597657 206.597657-114.101562 0-206.597656-92.496094-206.597656-206.597657 0-114.101562 92.496094-206.597656 206.597656-206.597656 114.101563 0 206.597657 92.496094 206.597657 206.597656zm0 0" fill="#473080"/><g fill="#382b73"><path d="m180.894531 322.261719c-.097656-1.125-.21875-2.238281-.386719-3.339844 0 0 0 0 0-.003906-3.589843-23.113281-23.574218-40.800781-47.691406-40.800781-24.113281 0-44.097656 17.6875-47.6875 40.800781v.003906c-.171875 1.101563-.292968 2.214844-.390625 3.339844-.019531.242187-.035156.484375-.054687.726562-.078125 1.125-.132813 2.253907-.132813 3.394531 0 19.160157 11.164063 35.714844 27.339844 43.507813 6.332031 3.050781 13.429687 4.757813 20.925781 4.757813 7.5 0 14.597656-1.707032 20.925782-4.757813 2.816406-1.355469 5.476562-2.976563 7.953124-4.832031.621094-.460938 1.230469-.941406 1.824219-1.429688 10.726563-8.851562 17.566407-22.25 17.566407-37.246094 0-1.140624-.054688-2.269531-.132813-3.394531-.019531-.242187-.039063-.484375-.058594-.726562zm0 0"/><path d="m286.878906 322.265625c-2.089844-24.726563-22.8125-44.148437-48.078125-44.148437-25.269531 0-45.988281 19.421874-48.078125 44.148437-.019531.242187-.039062.480469-.058594.722656-.074218 1.121094-.128906 2.25-.128906 3.394531 0 22.492188 15.382813 41.390626 36.203125 46.746094 3.855469.992188 7.898438 1.519532 12.0625 1.519532 4.164063 0 8.207031-.527344 12.0625-1.519532 20.816407-5.355468 36.203125-24.253906 36.203125-46.746094 0-1.144531-.054687-2.273437-.132812-3.394531-.019532-.242187-.035156-.480469-.054688-.722656zm0 0"/><path d="m392.917969 322.988281c-.019531-.242187-.035157-.484375-.054688-.726562-.09375-1.125-.21875-2.238281-.390625-3.339844 0 0 0 0 0-.003906-3.585937-23.113281-23.570312-40.800781-47.6875-40.800781-24.121094 0-44.101562 17.6875-47.6875 40.800781v.003906c-.171875 1.101563-.296875 2.214844-.390625 3.339844-.019531.242187-.035156.484375-.054687.726562-.078125 1.125-.132813 2.253907-.132813 3.394531 0 14.996094 6.839844 28.394532 17.566407 37.246094.59375.492188 1.203124.96875 1.820312 1.429688 2.480469 1.851562 5.140625 3.476562 7.953125 4.832031 6.332031 3.050781 13.429687 4.757813 20.925781 4.757813s14.59375-1.707032 20.925782-4.757813c4.21875-2.035156 8.097656-4.664063 11.527343-7.78125.570313-.519531 1.128907-1.050781 1.675781-1.597656 8.734376-8.734375 14.136719-20.800781 14.136719-34.128907 0-1.140624-.054687-2.269531-.132812-3.394531zm0 0"/><path d="m114.296875 238.285156h11.425781l9.871094 19.742188c3.683594 7.363281 14.191406 7.363281 17.871094 0l9.871094-19.742188h56.652343l9.875 19.742188c3.679688 7.363281 14.1875 7.363281 17.867188 0l9.875-19.742188h56.652343l9.871094 19.742188c3.683594 7.363281 14.191406 7.363281 17.871094 0l9.871094-19.742188h11.425781c4.691406 0 8.496094-3.804687 8.496094-8.496094v-78.832031c0-4.691406-3.804688-8.496093-8.496094-8.496093h-44.496094v-36.480469c0-4.589844-3.722656-8.308594-8.3125-8.308594h-143.382812c-4.589844 0-8.3125 3.71875-8.3125 8.308594v36.484375h-44.496094c-4.691406 0-8.496094 3.804687-8.496094 8.496094v78.828124c0 4.691407 3.804688 8.496094 8.496094 8.496094zm0 0"/></g><path d="m166.941406 278.253906c-18.847656-18.847656-49.410156-18.847656-68.257812 0s-18.847656 49.410156 0 68.257813c18.847656 18.847656 49.410156 18.847656 68.257812 0 18.847656-18.847657 18.847656-49.410157 0-68.257813zm0 0" fill="#1caee4"/><path d="m132.816406 345.722656c-24.117187 0-44.101562-17.691406-47.691406-40.800781-.378906 2.433594-.574219 4.921875-.574219 7.460937 0 26.65625 21.609375 48.265626 48.265625 48.265626s48.265625-21.609376 48.265625-48.265626c0-2.535156-.199219-5.027343-.574219-7.460937-3.59375 23.109375-23.574218 40.800781-47.691406 40.800781zm0 0" fill="#009add"/><path d="m121.621094 299.820312c0 3.367188-2.730469 6.09375-6.097656 6.09375-3.367188 0-6.09375-2.726562-6.09375-6.09375 0-3.367187 2.726562-6.097656 6.09375-6.097656 3.367187 0 6.097656 2.730469 6.097656 6.097656zm0 0" fill="#136da0"/><path d="m156.203125 299.820312c0 3.367188-2.730469 6.09375-6.097656 6.09375-3.367188 0-6.09375-2.726562-6.09375-6.09375 0-3.367187 2.726562-6.097656 6.09375-6.097656 3.367187 0 6.097656 2.730469 6.097656 6.097656zm0 0" fill="#136da0"/><path d="m132.816406 339.3125c-8.746094 0-17.488281-3.328125-24.144531-9.984375-1.75-1.75-1.75-4.585937 0-6.335937 1.746094-1.746094 4.585937-1.746094 6.332031 0 9.824219 9.824218 25.800782 9.824218 35.625 0 1.746094-1.746094 4.585938-1.746094 6.332032 0 1.75 1.75 1.75 4.585937 0 6.335937-6.65625 6.65625-15.402344 9.984375-24.144532 9.984375zm0 0" fill="#136da0"/><path d="m283.402344 293.914062c-10.199219-24.628906-38.433594-36.320312-63.0625-26.121093-24.628906 10.203125-36.324219 38.4375-26.121094 63.066406 10.199219 24.625 38.4375 36.320313 63.0625 26.121094 24.628906-10.203125 36.324219-38.4375 26.121094-63.066407zm0 0" fill="#1caee4"/><path d="m238.800781 345.722656c-24.117187 0-44.101562-17.691406-47.6875-40.800781-.378906 2.433594-.578125 4.921875-.578125 7.460937 0 26.65625 21.609375 48.265626 48.265625 48.265626 26.660157 0 48.265625-21.609376 48.265625-48.265626 0-2.535156-.195312-5.027343-.574218-7.460937-3.59375 23.109375-23.574219 40.800781-47.691407 40.800781zm0 0" fill="#009add"/><path d="m227.605469 299.820312c0 3.367188-2.730469 6.09375-6.097657 6.09375-3.367187 0-6.097656-2.726562-6.097656-6.09375 0-3.367187 2.730469-6.097656 6.097656-6.097656 3.367188 0 6.097657 2.730469 6.097657 6.097656zm0 0" fill="#136da0"/><path d="m262.1875 299.820312c0 3.367188-2.730469 6.09375-6.097656 6.09375-3.367188 0-6.097656-2.726562-6.097656-6.09375 0-3.367187 2.730468-6.097656 6.097656-6.097656 3.367187 0 6.097656 2.730469 6.097656 6.097656zm0 0" fill="#136da0"/><path d="m238.800781 339.3125c-8.746093 0-17.488281-3.328125-24.144531-9.984375-1.75-1.75-1.75-4.585937 0-6.335937 1.746094-1.746094 4.585938-1.746094 6.332031 0 9.824219 9.824218 25.800781 9.824218 35.625 0 1.746094-1.746094 4.585938-1.746094 6.332031 0 1.75 1.75 1.75 4.585937 0 6.335937-6.65625 6.65625-15.402343 9.984375-24.144531 9.984375zm0 0" fill="#136da0"/><path d="m355.878906 265.445312c-25.941406-6.125-51.9375 9.9375-58.066406 35.878907-6.125 25.945312 9.941406 51.941406 35.882812 58.066406 25.941407 6.125 51.9375-9.9375 58.0625-35.882813 6.125-25.941406-9.9375-51.9375-35.878906-58.0625zm0 0" fill="#1caee4"/><path d="m344.785156 345.722656c-24.121094 0-44.101562-17.691406-47.6875-40.800781-.378906 2.433594-.578125 4.921875-.578125 7.460937 0 26.65625 21.609375 48.265626 48.265625 48.265626s48.265625-21.609376 48.265625-48.265626c0-2.535156-.195312-5.027343-.574219-7.460937-3.589843 23.109375-23.574218 40.800781-47.691406 40.800781zm0 0" fill="#009add"/><path d="m333.589844 299.820312c0 3.367188-2.730469 6.09375-6.097656 6.09375-3.363282 0-6.09375-2.726562-6.09375-6.09375 0-3.367187 2.730468-6.097656 6.09375-6.097656 3.367187 0 6.097656 2.730469 6.097656 6.097656zm0 0" fill="#136da0"/><path d="m368.171875 299.820312c0 3.367188-2.730469 6.09375-6.097656 6.09375-3.363281 0-6.09375-2.726562-6.09375-6.09375 0-3.367187 2.730469-6.097656 6.09375-6.097656 3.367187 0 6.097656 2.730469 6.097656 6.097656zm0 0" fill="#136da0"/><path d="m344.785156 339.3125c-8.746094 0-17.488281-3.328125-24.144531-9.984375-1.75-1.75-1.75-4.585937 0-6.335937 1.746094-1.746094 4.585937-1.746094 6.332031 0 9.824219 9.824218 25.800782 9.824218 35.625 0 1.746094-1.746094 4.585938-1.746094 6.332032 0 1.75 1.75 1.75 4.585937 0 6.335937-6.65625 6.65625-15.402344 9.984375-24.144532 9.984375zm0 0" fill="#136da0"/><path d="m363.304688 135.742188h-249.007813c-4.691406 0-8.496094 3.804687-8.496094 8.496093v71.546875c0 4.691406 3.804688 8.496094 8.496094 8.496094h11.425781l9.871094 19.746094c3.683594 7.363281 14.191406 7.363281 17.871094 0l9.871094-19.746094h56.652343l9.875 19.746094c3.679688 7.363281 14.1875 7.363281 17.867188 0l9.875-19.746094h56.652343l9.871094 19.746094c3.683594 7.363281 14.191406 7.363281 17.871094 0l9.871094-19.746094h11.425781c4.691406 0 8.496094-3.804688 8.496094-8.496094v-71.546875c.007812-4.691406-3.796875-8.496093-8.488281-8.496093zm0 0" fill="#e43d91"/><path d="m363.304688 128.460938h-249.007813c-4.691406 0-8.496094 3.804687-8.496094 8.496093v71.550781c0 4.691407 3.804688 8.496094 8.496094 8.496094h13.710937l11.40625 22.816406c2.109376 4.214844 8.125 4.214844 10.230469 0l11.410157-22.816406h61.222656l11.40625 22.816406c2.109375 4.214844 8.125 4.214844 10.230468 0l11.40625-22.816406h61.222657l11.410156 22.816406c2.105469 4.214844 8.121094 4.214844 10.230469 0l11.410156-22.816406h13.707031c4.691407 0 8.496094-3.804687 8.496094-8.496094v-71.550781c.003906-4.691406-3.800781-8.496093-8.492187-8.496093zm0 0" fill="#ef5a9d"/><path d="m158.792969 128.460938v73.027343c0 4.589844 3.722656 8.3125 8.3125 8.3125h143.390625c4.59375 0 8.3125-3.722656 8.3125-8.3125v-73.027343zm0 0" fill="#e43d91"/><path d="m310.496094 197.800781h-71.714844v-106.503906h71.714844c4.589844 0 8.308594 3.722656 8.308594 8.3125v89.882813c0 4.585937-3.71875 8.308593-8.308594 8.308593zm0 0" fill="#d1d3d4"/><path d="m310.496094 190.175781h-71.714844v-106.503906h71.714844c4.589844 0 8.308594 3.71875 8.308594 8.308594v89.886719c0 4.585937-3.71875 8.308593-8.308594 8.308593zm0 0" fill="#fff"/><path d="m301.53125 140.5625h-45.328125c-2.503906 0-4.53125-1.75-4.53125-3.914062 0-2.164063 2.027344-3.917969 4.53125-3.917969h45.328125c2.503906 0 4.53125 1.753906 4.53125 3.917969 0 2.160156-2.027344 3.914062-4.53125 3.914062zm0 0" fill="#d1d3d4"/><path d="m301.53125 158.65625h-45.328125c-2.503906 0-4.53125-1.75-4.53125-3.914062 0-2.164063 2.027344-3.917969 4.53125-3.917969h45.328125c2.503906 0 4.53125 1.753906 4.53125 3.917969 0 2.164062-2.027344 3.914062-4.53125 3.914062zm0 0" fill="#d1d3d4"/><path d="m301.53125 107.492188h-45.328125c-2.503906 0-4.53125-1.75-4.53125-3.914063s2.027344-3.917969 4.53125-3.917969h45.328125c2.503906 0 4.53125 1.753906 4.53125 3.917969s-2.027344 3.914063-4.53125 3.914063zm0 0" fill="#d1d3d4"/><path d="m301.53125 176.753906h-45.328125c-2.503906 0-4.53125-1.75-4.53125-3.914062 0-2.164063 2.027344-3.917969 4.53125-3.917969h45.328125c2.503906 0 4.53125 1.753906 4.53125 3.917969 0 2.164062-2.027344 3.914062-4.53125 3.914062zm0 0" fill="#d1d3d4"/><path d="m167.105469 197.800781h71.714843v-106.503906h-71.714843c-4.589844 0-8.3125 3.722656-8.3125 8.3125v89.882813c0 4.585937 3.722656 8.308593 8.3125 8.308593zm0 0" fill="#bcbec0"/><path d="m167.105469 190.175781h71.714843v-106.503906h-71.714843c-4.589844 0-8.3125 3.71875-8.3125 8.308594v89.886719c0 4.585937 3.722656 8.308593 8.3125 8.308593zm0 0" fill="#e6e7e8"/><path d="m176.070312 140.5625h45.328126c2.503906 0 4.535156-1.75 4.535156-3.914062 0-2.164063-2.03125-3.917969-4.535156-3.917969h-45.328126c-2.503906 0-4.535156 1.753906-4.535156 3.917969 0 2.160156 2.03125 3.914062 4.535156 3.914062zm0 0" fill="#bcbec0"/><path d="m176.070312 158.65625h45.328126c2.503906 0 4.535156-1.75 4.535156-3.914062 0-2.164063-2.03125-3.917969-4.535156-3.917969h-45.328126c-2.503906 0-4.535156 1.753906-4.535156 3.917969 0 2.164062 2.03125 3.914062 4.535156 3.914062zm0 0" fill="#bcbec0"/><path d="m176.070312 176.753906h45.328126c2.503906 0 4.535156-1.75 4.535156-3.914062 0-2.164063-2.03125-3.917969-4.535156-3.917969h-45.328126c-2.503906 0-4.535156 1.753906-4.535156 3.917969 0 2.164062 2.03125 3.914062 4.535156 3.914062zm0 0" fill="#bcbec0"/><path d="m174.859375 95.996094h47.746094c1.835937 0 3.324219 1.488281 3.324219 3.324218v16.34375c0 1.835938-1.488282 3.324219-3.324219 3.324219h-47.746094c-1.835937 0-3.324219-1.488281-3.324219-3.324219v-16.34375c0-1.835937 1.488282-3.324218 3.324219-3.324218zm0 0" fill="#bcbec0"/></svg>