<?xml version="1.0" encoding="utf-8"?>
<!-- Generator: Adobe Illustrator 25.4.1, SVG Export Plug-In . SVG Version: 6.00 Build 0)  -->
<svg version="1.1" id="레이어_1" xmlns="http://www.w3.org/2000/svg" xmlns:xlink="http://www.w3.org/1999/xlink" x="0px"
	 y="0px" viewBox="0 0 64 64" style="enable-background:new 0 0 64 64;" xml:space="preserve">
<style type="text/css">
	.st0{fill-rule:evenodd;clip-rule:evenodd;fill:#E9DEEF;}
	.st1{fill:#E9DEEF;}
	.st2{fill:#5B2077;}
	.st3{display:none;}
	.st4{display:inline;}
	.st5{fill:none;stroke:#4C5159;stroke-width:2;stroke-miterlimit:10;}
	.st6{display:inline;fill:none;stroke:#4C5159;stroke-width:2;stroke-miterlimit:10;}
	.st7{display:inline;fill:none;stroke:#4C5159;stroke-width:2;stroke-miterlimit:10;stroke-dasharray:1.9857,1.9857;}
	.st8{display:inline;fill:none;stroke:#4C5159;stroke-width:2;stroke-miterlimit:10;stroke-dasharray:2;}
	.st9{fill:none;stroke:#4C5159;stroke-width:2;stroke-miterlimit:10;stroke-dasharray:2;}
	.st10{display:inline;fill:none;stroke:#4C5159;stroke-width:2;stroke-miterlimit:10;stroke-dasharray:3;}
	.st11{fill:none;stroke:#4C5159;stroke-width:2;stroke-miterlimit:10;stroke-dasharray:3;}
	.st12{fill:none;stroke:#5B2077;stroke-width:2;stroke-miterlimit:10;}
	.st13{fill:none;stroke:#4C5159;stroke-width:2;stroke-miterlimit:10;stroke-dasharray:1.9857,1.9857;}
	.st14{display:inline;fill:none;stroke:#5B2077;stroke-width:2;stroke-miterlimit:10;}
	.st15{display:inline;fill:none;stroke:#5B2077;stroke-width:2;stroke-miterlimit:10;stroke-dasharray:1.9857,1.9857;}
	.st16{display:inline;fill:none;stroke:#5B2077;stroke-width:2;stroke-miterlimit:10;stroke-dasharray:2;}
	.st17{fill:none;stroke:#5B2077;stroke-width:2;stroke-miterlimit:10;stroke-dasharray:2;}
	.st18{display:inline;fill:none;stroke:#5B2077;stroke-width:2;stroke-miterlimit:10;stroke-dasharray:3;}
	.st19{fill:none;stroke:#5B2077;stroke-width:2;stroke-miterlimit:10;stroke-dasharray:3;}
	.st20{fill:#E9DEEF;stroke:#5B2077;stroke-width:2;stroke-miterlimit:10;}
	.st21{fill:none;stroke:#5B2077;stroke-width:2;stroke-miterlimit:10;stroke-dasharray:1.9857,1.9857;}
	.st22{fill-rule:evenodd;clip-rule:evenodd;fill:#5B2077;}
</style>
<polygon class="st0" points="51.9,33.2 58.2,32.6 58.2,35.6 52.3,35.6 50.6,34.1 "/>
<polygon class="st0" points="32.2,49.9 30,54.7 31.3,58.4 33.3,59.4 34.1,52.6 "/>
<polygon class="st0" points="5.6,31.4 5.6,36.8 11.5,36.6 12.8,34.1 10.7,33.2 "/>
<path class="st0" d="M16.3,41.6c0,0,3.3-12.7,7.9-12l3.9,5.9l4-3.5l2.3,3.5l4.6-5.9c0,0,6,0.1,8,13.2l-2.7,3.7l-6.1-5.8l1.2,8.7
	l0.9,2.3l-5.7-0.1l-2.5-2.8l-2.6,2.9l-4.7-1.3l-0.1-7.8l-6,5.9L16.3,41.6z"/>
<path class="st0" d="M25.3,14.2c0,0-3.5-10.2,8-7.7c0,0,3.2,0.2,5-1.5c0,0,3.4-0.6,1.4,10.6l-3.2-3.6l-3.2,1.8L28,12L25.3,14.2z"/>
<g id="layer1_00000090256770442300909550000016501840692113159082_" transform="translate(0,-274.42223)">
	<path id="path2701" class="st22" d="M38.5,278.1c-0.3,0-0.6,0.2-0.8,0.4c0,0-0.8,1.4-2.6,1.4c-1,0-2.3-0.2-3.7-0.4
		c-1.3-0.2-2.6-0.3-3.8,0c-2.3,0.6-3.7,2.1-4.3,3.9c-0.4,1.1-0.4,2.2-0.3,3.3c-8,3.1-14,10.3-15.3,19.1H5.6c-0.5,0-0.9,0.4-0.9,0.9
		v3.6c0,0.5,0.4,0.9,0.9,0.9h2c0.9,11.7,10.2,21.1,21.8,22.1v0.4c0,0.5,0.4,0.9,0.9,0.9H34c0.5,0,0.9-0.4,0.9-0.9v-0.5
		c11.4-1.3,20.5-10.6,21.4-22.1h2c0.5,0,0.9-0.4,0.9-0.9v-3.6c0-0.5-0.4-0.9-0.9-0.9h-2.2c-1.3-8.7-7.1-15.9-15-19
		c0.1-1.7,0.3-3.3,0.3-4.7c0-0.9-0.1-1.7-0.5-2.5c-0.4-0.7-1.2-1.3-2.1-1.5C38.7,278.1,38.6,278.1,38.5,278.1L38.5,278.1z
		 M25.3,288.6c0-0.1-0.1-0.1-0.1-0.3c-0.4-1.5-0.4-3.1,0-4.4c0.4-1.3,1.2-2.2,3-2.7c0.6-0.2,1.8-0.1,3.1,0.1
		c1.3,0.2,2.6,0.4,3.9,0.4c1.9,0,3-0.9,3.5-1.6l0,0c0.2,0.1,0.4,0.2,0.5,0.4c0.2,0.3,0.3,0.9,0.3,1.7c0,1.5-0.3,3.8-0.3,6.3
		c0,0.3,0,0.4,0,0.5c-0.6-0.7-1.2-1.8-1.4-2.2c-0.3-0.6-0.8-0.7-1.3-0.5c-2.9,1.5-5.6,1.4-8.5,0c-0.5-0.2-1.1-0.1-1.3,0.5
		c-0.1,0.2-0.6,1.1-1.1,1.6L25.3,288.6z M26.6,289.9c0.4-0.3,0.6-0.7,0.9-1c0.1-0.2,0.2-0.3,0.3-0.4c0.1-0.1,0.2-0.2,0.2-0.4l0,0
		c2.8,1.1,5.7,1.2,8.5,0c0.1,0.2,0.3,0.5,0.5,0.8c0,0,0,0,0,0c0.3,0.4,0.6,0.9,0.9,1.3l0.1,0.1l0,2.6c0,0.8-0.4,1.6-1,2.1
		c-0.9,0.7-2.2,1.8-3.3,2.6c-1,0.8-2.4,0.8-3.4,0c-1.1-0.9-2.3-1.9-3.3-2.6c-0.7-0.5-1-1.3-1-2.2l0-2.6
		C26.2,290.2,26.4,290.1,26.6,289.9L26.6,289.9z M23.4,288.5c0,0.1,0,0.1,0,0.2c0.1,0.5,0.3,0.9,0.5,1.2c0.1,0.1,0.2,0.2,0.3,0.3
		l0,1.9c-5.9,2.6-10.3,8.2-11.1,14.9l-1.6-1.1c-0.1-0.1-0.3-0.2-0.5-0.2H9.7C10.9,297.9,16.2,291.4,23.4,288.5L23.4,288.5z
		 M41,288.7c6.9,3,12.1,9.4,13.3,17.1H53c-0.2,0-0.4,0.1-0.5,0.2l-1.6,1.1c-0.8-6.7-5.1-12.3-11.1-14.9l0-0.8c0.1,0,0.1,0,0.2-0.1
		c0.5-0.2,0.8-0.7,0.9-1.1C41,289.7,41,289.3,41,288.7L41,288.7z M15.7,314.8c-0.6-1.7-0.9-3.5-0.9-5.4h0.7c0.5,0,0.9-0.4,0.9-0.9
		c0-0.5-0.4-0.9-0.9-0.9h-0.6c0.6-6,4.3-11,9.4-13.5h0c0.2,1,0.8,1.8,1.6,2.5c0.5,0.4,1.1,0.9,1.7,1.4l-0.4,3.5
		c-0.3-0.1-0.6-0.2-1-0.2c-0.4-0.1-1-0.1-1.5,0.3c-0.5,0.3-0.8,0.9-0.8,1.6c-1.4,0.3-2.6,0.9-3.6,1.9c-1.2,1.1-2,2.7-2.6,4.3
		L15.7,314.8z M46.3,309.2c-0.6-1.7-1.4-3.2-2.6-4.3c-1-0.9-2.2-1.6-3.6-1.9c0-0.7-0.3-1.3-0.8-1.6c-0.5-0.3-1.1-0.3-1.5-0.3
		c-0.4,0-0.7,0.2-1,0.3l-0.4-3.5c0.6-0.5,1.3-1,1.8-1.4c0.8-0.6,1.3-1.5,1.6-2.5v0c5.1,2.5,8.8,7.6,9.4,13.5h-0.6
		c-0.5,0-0.9,0.4-0.9,0.9c0,0.5,0.4,0.9,0.9,0.9h0.7c0,1.9-0.3,3.7-0.9,5.4L46.3,309.2z M29.3,299.2c1.6,1.2,3.7,1.2,5.3,0l0.4,3.3
		l-3,2.4l-3-2.4L29.3,299.2z M26,303c0.4,0.1,0.9,0.3,1,0.3l3.6,2.9l-1.8,1.8c-0.4-0.4-0.7-0.7-1.4-1.5c-0.5-0.6-1-1.3-1.3-1.9
		c-0.3-0.6-0.5-1.2-0.5-1.4c0-0.1,0-0.1,0-0.2C25.8,303,25.9,303,26,303L26,303z M38.3,303c0,0,0,0.1,0,0.2c0,0.2-0.2,0.8-0.5,1.4
		c-0.3,0.6-0.8,1.3-1.3,1.9c-0.7,0.8-1,1.2-1.4,1.5l-1.8-1.8l3.6-2.9c0.1,0,0.6-0.3,1-0.3C38.1,303,38.2,303,38.3,303L38.3,303z
		 M39,324.8c-1.3,0.6-2.8,1-4.3,1.2l-1.6-2.5V322c0-0.5-0.4-0.9-0.9-0.9c-0.5,0-0.9,0.4-0.9,0.9v1.5l-1.7,2.5
		c-1.7-0.2-3.2-0.7-4.7-1.3l0.7-9.7c0-0.5-0.3-0.9-0.8-1c-0.5,0-0.9,0.3-1,0.8l-0.1,1.4l-4.2,4.5c-1-1.1-1.9-2.3-2.7-3.7l2.5-7.4
		c0.5-1.5,1.3-2.7,2.2-3.6c0.8-0.8,1.7-1.2,2.8-1.4c0.1,0.2,0.2,0.4,0.3,0.6c0.4,0.7,0.9,1.5,1.5,2.1c1.1,1.3,2.1,2.4,2.1,2.4
		c0.4,0.4,0.9,0.4,1.3,0l2.5-2.5l2.5,2.5c0.4,0.3,0.9,0.3,1.3,0c0,0,1.1-1,2.1-2.4c0.5-0.7,1.1-1.4,1.5-2.1c0.1-0.2,0.2-0.4,0.3-0.6
		h0c1.1,0.2,2,0.7,2.8,1.4c0.9,0.9,1.7,2.2,2.2,3.6l2.5,7.4c-0.7,1.3-1.6,2.6-2.7,3.7l-4.2-4.5l-0.1-1.4c0-0.5-0.5-0.9-1-0.8
		c-0.5,0-0.9,0.5-0.8,1L39,324.8z M6.5,307.6h4.2l1.4,0.9l-1.4,0.9H6.5V307.6z M53.2,307.6h4.2v1.8h-4.2l-1.4-0.9L53.2,307.6z
		 M52.5,311c0.1,0.1,0.3,0.1,0.5,0.1h1.5c-0.9,10.5-9.1,19-19.6,20.3v-3.6c1.9-0.3,3.7-0.8,5.4-1.7h0c0,0,0,0,0,0c0,0,0,0,0,0
		c0,0,0,0,0,0c1.7-0.8,3.2-1.9,4.5-3.1c0,0,0.1-0.1,0.1-0.1c0,0,0.1-0.1,0.1-0.1c1.5-1.4,2.8-3.1,3.7-5c0-0.1,0.1-0.1,0.1-0.2v0
		c1.2-2.3,1.9-4.9,2-7.6L52.5,311z M13,310c0.1,2.8,0.8,5.4,2,7.7c0,0,0,0,0,0c1,1.9,2.2,3.6,3.8,5.1c0,0,0,0.1,0.1,0.1
		c0,0,0,0,0.1,0c2.8,2.7,6.5,4.4,10.5,4.9v3.6c-10.6-1.1-19.1-9.6-20-20.3H11c0.2,0,0.4,0,0.5-0.1L13,310z M40.5,319.3l2.7,2.9
		c-0.7,0.6-1.5,1.2-2.4,1.7L40.5,319.3z M23.5,319.3l-0.3,4.6c-0.8-0.5-1.6-1.1-2.4-1.7L23.5,319.3z M32.2,325.5l0.9,1.4v6h-1.8v-6
		L32.2,325.5z"/>
</g>
</svg>
