<?xml version="1.0" encoding="utf-8"?>
<!-- Generator: Adobe Illustrator 25.4.1, SVG Export Plug-In . SVG Version: 6.00 Build 0)  -->
<svg version="1.1" id="레이어_1" xmlns="http://www.w3.org/2000/svg" xmlns:xlink="http://www.w3.org/1999/xlink" x="0px"
	 y="0px" viewBox="0 0 64 64" style="enable-background:new 0 0 64 64;" xml:space="preserve">
<style type="text/css">
	.st0{fill-rule:evenodd;clip-rule:evenodd;fill:#E9DEEF;}
	.st1{fill:#E9DEEF;}
	.st2{fill:#5B2077;}
	.st3{display:none;}
	.st4{display:inline;}
	.st5{fill:none;stroke:#4C5159;stroke-width:2;stroke-miterlimit:10;}
	.st6{display:inline;fill:none;stroke:#4C5159;stroke-width:2;stroke-miterlimit:10;}
	.st7{display:inline;fill:none;stroke:#4C5159;stroke-width:2;stroke-miterlimit:10;stroke-dasharray:1.9857,1.9857;}
	.st8{display:inline;fill:none;stroke:#4C5159;stroke-width:2;stroke-miterlimit:10;stroke-dasharray:2;}
	.st9{fill:none;stroke:#4C5159;stroke-width:2;stroke-miterlimit:10;stroke-dasharray:2;}
	.st10{display:inline;fill:none;stroke:#4C5159;stroke-width:2;stroke-miterlimit:10;stroke-dasharray:3;}
	.st11{fill:none;stroke:#4C5159;stroke-width:2;stroke-miterlimit:10;stroke-dasharray:3;}
	.st12{fill:none;stroke:#5B2077;stroke-width:2;stroke-miterlimit:10;}
	.st13{fill:none;stroke:#4C5159;stroke-width:2;stroke-miterlimit:10;stroke-dasharray:1.9857,1.9857;}
	.st14{display:inline;fill:none;stroke:#5B2077;stroke-width:2;stroke-miterlimit:10;}
	.st15{display:inline;fill:none;stroke:#5B2077;stroke-width:2;stroke-miterlimit:10;stroke-dasharray:1.9857,1.9857;}
	.st16{display:inline;fill:none;stroke:#5B2077;stroke-width:2;stroke-miterlimit:10;stroke-dasharray:2;}
	.st17{fill:none;stroke:#5B2077;stroke-width:2;stroke-miterlimit:10;stroke-dasharray:2;}
	.st18{display:inline;fill:none;stroke:#5B2077;stroke-width:2;stroke-miterlimit:10;stroke-dasharray:3;}
	.st19{fill:none;stroke:#5B2077;stroke-width:2;stroke-miterlimit:10;stroke-dasharray:3;}
	.st20{fill:#E9DEEF;stroke:#5B2077;stroke-width:2;stroke-miterlimit:10;}
	.st21{fill:none;stroke:#5B2077;stroke-width:2;stroke-miterlimit:10;stroke-dasharray:1.9857,1.9857;}
	.st22{fill-rule:evenodd;clip-rule:evenodd;fill:#5B2077;}
</style>
<polygon class="st0" points="42.4,35.8 47.1,33.1 47.1,36.6 44.1,39.3 "/>
<polygon class="st0" points="22.1,16.4 31.7,16.4 32.8,13.6 46.5,13.8 46.5,25.3 42.4,31 42.2,21.2 26.8,19.3 26.6,22.9 18.8,22 
	18.8,20.6 "/>
<g id="layer1_00000167391358391003253470000013280351536735774655_" transform="translate(0,-274.42223)">
	<path id="path122942" class="st22" d="M56,291.8c0-0.5-0.4-0.9-0.9-0.9h-1.5c0-3.2,0-5.9,0-10c0-1-0.9-1.9-1.9-1.9l-13.5,0
		c-1,0-1.9,0.9-1.9,1.9v0.8l-9.2,0c-0.3,0-0.5,0.1-0.7,0.3l-3.7,4.7c-0.1,0.1-0.2,0.3-0.2,0.5v1.8h-1c-0.3,0-0.5,0.1-0.7,0.3
		l-3.7,4.7c-0.1,0.2-0.2,0.3-0.2,0.5v1.8l-1.4,0c-0.3,0-0.5,0.1-0.7,0.3l-3.7,4.7c-0.1,0.1-0.2,0.3-0.2,0.5v5.4h-1
		c-0.5,0-0.9,0.4-0.9,0.9v23c0,0.5,0.4,0.9,0.9,0.9h29.4c0.1,0,0.3,0,0.4-0.1c0,0,0,0,0,0c0,0,0,0,0,0c0.1,0,0.1-0.1,0.2-0.2
		l15.6-16.4c0.2-0.2,0.2-0.4,0.2-0.6C56,307.2,56,299.5,56,291.8L56,291.8z M38.3,280.7h13.5c0.1,0,0.2,0.1,0.2,0.2c0,5,0,8.7,0,13
		l-3.8,4c0-3.4,0-5.2,0-9.7c0-1-0.9-1.9-1.9-1.9H32.8c-1,0-1.9,0.9-1.9,1.9v0.8l-6.6,0v-1.5l3.2-4.2l9.7,0c0.5,0,0.9-0.4,0.9-0.9
		v-1.7C38.1,280.8,38.2,280.7,38.3,280.7L38.3,280.7z M32.8,288.1h13.5c0.1,0,0.2,0.1,0.2,0.2c0,5.3,0,6.4,0,11.5l-4.3,4.5
		c0-3.3,0-4.1,0-8.7v0v0v0c0-1-0.9-1.9-1.9-1.9H26.8c-1,0-1.9,0.9-1.9,1.9v0.8l-6.1,0V295l3.2-4.2l9.7,0c0.5,0,0.9-0.4,0.9-0.9v-1.7
		C32.6,288.1,32.7,288.1,32.8,288.1L32.8,288.1z M54.3,294v20.6l-13.9,14.6v-20.5C45,303.8,49.7,298.9,54.3,294z M26.8,295.4h13.5
		c0.1,0,0.2,0.1,0.2,0.2c0,5.3,0,5.5,0,10.5l-1.3,1.4H12.8v-5.1l3.2-4.2c3.2,0,6.4,0,9.7,0c0.5,0,0.9-0.4,0.9-0.9v-1.7
		C26.6,295.5,26.7,295.4,26.8,295.4L26.8,295.4z M46.9,305.6c-0.2,0-0.4,0.1-0.6,0.3l-3.7,3.7c-0.2,0.2-0.3,0.4-0.3,0.6v4.6
		c0,0.8,0.9,1.1,1.5,0.6l3.7-3.7c0.2-0.2,0.3-0.4,0.3-0.6v-4.6c0-0.3-0.2-0.7-0.5-0.8C47.1,305.7,47,305.6,46.9,305.6L46.9,305.6z
		 M46,308.6v2.2l-2,2v-2.2L46,308.6z M11,309.2h27.7v21.3H11V309.2z M18.5,317.6c-0.1,0-0.2,0-0.3,0.1c-0.4,0.2-0.6,0.7-0.4,1.2
		l1.3,2.7c0.1,0.3,0.4,0.5,0.8,0.5h10.6c0.3,0,0.6-0.2,0.7-0.4l1.5-2.6c0.2-0.4,0.1-0.9-0.3-1.2c-0.2-0.1-0.4-0.1-0.7-0.1
		c-0.2,0.1-0.4,0.2-0.5,0.4l-1.3,2.2h-9.6l-1.1-2.2C19.2,317.7,18.9,317.5,18.5,317.6L18.5,317.6z"/>
</g>
</svg>
