<svg width="25" height="25" viewBox="0 0 25 25" fill="none" xmlns="http://www.w3.org/2000/svg">
<path fill-rule="evenodd" clip-rule="evenodd" d="M16.9224 19.4478C15.1709 20.695 13.0283 21.4286 10.7143 21.4286C4.79695 21.4286 0 16.6316 0 10.7143C0 4.79695 4.79695 0 10.7143 0C16.6316 0 21.4286 4.79695 21.4286 10.7143C21.4286 13.0283 20.695 15.1709 19.4478 16.9224L24.477 21.9516C25.1743 22.649 25.1743 23.7796 24.477 24.477C23.7796 25.1743 22.649 25.1743 21.9516 24.477L16.9224 19.4478ZM17.8571 10.7143C17.8571 14.6592 14.6592 17.8571 10.7143 17.8571C6.76939 17.8571 3.57143 14.6592 3.57143 10.7143C3.57143 6.76939 6.76939 3.57143 10.7143 3.57143C14.6592 3.57143 17.8571 6.76939 17.8571 10.7143Z" fill="white"/>
</svg>
