<svg width="32" height="32" viewBox="0 0 32 32" fill="none" xmlns="http://www.w3.org/2000/svg">
<path d="M9.13444 11.29C9.57976 7.28212 12.9674 4.25 17 4.25V4.25C21.0326 4.25 24.4202 7.28212 24.8656 11.29L25.2223 14.5005C25.3068 15.2609 25.349 15.6412 25.4262 16.012C25.5571 16.6406 25.7632 17.2512 26.0401 17.8306C26.2034 18.1724 26.4003 18.5004 26.7939 19.1565L27.9326 21.0543C28.7384 22.3973 29.1412 23.0687 28.854 23.576C28.5668 24.0833 27.7837 24.0833 26.2176 24.0833H7.78238C6.21627 24.0833 5.43322 24.0833 5.14599 23.576C4.85876 23.0687 5.26164 22.3973 6.0674 21.0543L7.20609 19.1565C7.59975 18.5004 7.79658 18.1724 7.9599 17.8306C8.23677 17.2512 8.44287 16.6406 8.57377 16.012C8.65098 15.6412 8.69323 15.2609 8.77772 14.5005L9.13444 11.29Z" stroke="#6759F6" stroke-width="2"/>
<path d="M12.8948 25.025C13.137 26.3805 13.6705 27.5783 14.4128 28.4326C15.155 29.2869 16.0644 29.75 17 29.75C17.9356 29.75 18.845 29.2869 19.5872 28.4326C20.3295 27.5783 20.863 26.3805 21.1052 25.025" stroke="#6759F6" stroke-width="2" stroke-linecap="round"/>
</svg>
