<svg id="레이어_1" data-name="레이어 1" xmlns="http://www.w3.org/2000/svg" viewBox="0 0 35.13 35"><defs><style>.cls-1{fill:#59288a;}</style></defs><path class="cls-1" d="M7.41,18.39c2.41.6,4.27-.56,5.89-2.6,1-1.3,2.38-3.62,3.38-4.95A6.39,6.39,0,0,1,21,8L11,2.25C8.47.82,5.09.68,3,2.57c-2.47,2.25-2.32,6-1.09,9.1C2.89,14.14,5,17.79,7.41,18.39Z" transform="translate(-0.46 -0.5)"/><path class="cls-1" d="M28.41,12.33,23.78,9.66a8.35,8.35,0,0,1,.67,1.7c1.08,3.52.93,8.1.5,11.75a34.52,34.52,0,0,1-.59,3.57l4.05-2.34A6.94,6.94,0,0,0,28.41,12.33Z" transform="translate(-0.46 -0.5)"/><path class="cls-1" d="M21,19.39c0-1.36-.55-3-1.87-3.32a2.94,2.94,0,0,0-2.28.59c-1.75,1.18-2.81,3.11-4.13,4.76S9.81,24.58,8,24.29c-2.12-.35-3.41-2.83-4.58-4.77-.93-1.57-1.63-1.18-2-.09a21.13,21.13,0,0,0-.84,8.14C.73,30,1.21,32.26,2.79,34a5.44,5.44,0,0,0,5.5,1.3C15.51,33.09,21.18,26.83,21,19.39Z" transform="translate(-0.46 -0.5)"/><circle class="cls-1" cx="31.91" cy="3.22" r="3.22"/></svg>