<svg width="26" height="20" viewBox="0 0 26 20" fill="none" xmlns="http://www.w3.org/2000/svg">
<path d="M3 4.92308C3 3.73462 3.00209 2.94318 3.0807 2.35444C3.15556 1.79375 3.28308 1.56905 3.42553 1.42561C3.56702 1.28312 3.78734 1.15602 4.34083 1.08108C4.92381 1.00215 5.7081 1 6.88889 1H19.1111C20.2919 1 21.0762 1.00215 21.6592 1.08108C22.2127 1.15602 22.433 1.28312 22.5745 1.42561C22.7169 1.56905 22.8444 1.79375 22.9193 2.35444C22.9979 2.94318 23 3.73462 23 4.92308V15H3V4.92308Z" stroke="#EFE9E9" stroke-width="2"/>
<path d="M2.81481 15C2.0095 15 1 15.5679 1 16.6667C1 18.1336 2.37431 19 3.62963 19H22.3704C23.6257 19 25 18.1336 25 16.6667C25 15.5679 23.9905 15 23.1852 15H2.81481Z" stroke="#EFE9E9" stroke-width="2"/>
</svg>
