<svg width="21" height="24" viewBox="0 0 21 24" fill="none" xmlns="http://www.w3.org/2000/svg">
<path d="M1 5C1 3.11438 1 2.17157 1.58579 1.58579C2.17157 1 3.11438 1 5 1H16C17.8856 1 18.8284 1 19.4142 1.58579C20 2.17157 20 3.11438 20 5V17C20 19.8284 20 21.2426 19.1213 22.1213C18.2426 23 16.8284 23 14 23H7C4.17157 23 2.75736 23 1.87868 22.1213C1 21.2426 1 19.8284 1 17V5Z" stroke="#AA5DDD" stroke-width="2"/>
<path d="M15 20L15 23M7 20L7 23" stroke="#AA5DDD" stroke-width="2" stroke-linecap="round"/>
<path d="M7 7L15 7" stroke="#AA5DDD" stroke-width="2" stroke-linecap="round"/>
<path d="M7 12L15 12" stroke="#AA5DDD" stroke-width="2" stroke-linecap="round"/>
</svg>
