<svg width="24" height="23" viewBox="0 0 24 23" fill="none" xmlns="http://www.w3.org/2000/svg">
<rect x="1" y="1" width="8" height="10" rx="1" stroke="#EFE9E9" stroke-width="2" stroke-linejoin="round"/>
<path d="M1 17C1 16.0572 1 15.5858 1.29289 15.2929C1.58579 15 2.05719 15 3 15H7C7.94281 15 8.41421 15 8.70711 15.2929C9 15.5858 9 16.0572 9 17V20C9 20.9428 9 21.4142 8.70711 21.7071C8.41421 22 7.94281 22 7 22H3C2.05719 22 1.58579 22 1.29289 21.7071C1 21.4142 1 20.9428 1 20V17Z" stroke="#EFE9E9" stroke-width="2" stroke-linejoin="round"/>
<rect x="15" y="1" width="8" height="7" rx="1" stroke="#EFE9E9" stroke-width="2" stroke-linejoin="round"/>
<path d="M15 14C15 13.0572 15 12.5858 15.2929 12.2929C15.5858 12 16.0572 12 17 12H21C21.9428 12 22.4142 12 22.7071 12.2929C23 12.5858 23 13.0572 23 14V20C23 20.9428 23 21.4142 22.7071 21.7071C22.4142 22 21.9428 22 21 22H17C16.0572 22 15.5858 22 15.2929 21.7071C15 21.4142 15 20.9428 15 20V14Z" stroke="#EFE9E9" stroke-width="2" stroke-linejoin="round"/>
</svg>
