<svg width="24" height="25" viewBox="0 0 24 25" fill="none" xmlns="http://www.w3.org/2000/svg">
<path d="M1 7.1308C1 6.37412 1 5.99577 1.13211 5.65056C1.26423 5.30535 1.51682 5.02367 2.022 4.46032L3.93278 2.32951C4.51987 1.67482 4.81341 1.34747 5.20256 1.17373C5.59172 1 6.0314 1 6.91078 1H17.0892C17.9686 1 18.4083 1 18.7974 1.17373C19.1866 1.34747 19.4801 1.67482 20.0672 2.32951L21.978 4.46032C22.4832 5.02367 22.7358 5.30535 22.8679 5.65056C23 5.99577 23 6.37412 23 7.1308V20C23 21.8856 23 22.8284 22.4142 23.4142C21.8284 24 20.8856 24 19 24H5C3.11438 24 2.17157 24 1.58579 23.4142C1 22.8284 1 21.8856 1 20V7.1308Z" stroke="#AA5DDD" stroke-width="2"/>
<path d="M1 9H23" stroke="#AA5DDD" stroke-width="2" stroke-linecap="round"/>
<path d="M17.175 8L7.825 8C7.43609 8 7.24164 8 7.12082 8.10006C7 8.20013 7 8.36117 7 8.68327L7 14.3772C7 15.4223 7 15.9449 7.1632 16.2258C7.52751 16.8528 8.40248 17.1529 9.1954 16.9229C9.5506 16.8199 9.99676 16.4504 10.8891 15.7114C11.3024 15.3691 11.509 15.1979 11.7287 15.1017C12.2113 14.8904 12.7887 14.8904 13.2713 15.1017C13.491 15.1979 13.6976 15.3691 14.1109 15.7114C15.0032 16.4504 15.4494 16.8199 15.8046 16.9229C16.5975 17.1529 17.4725 16.8528 17.8368 16.2258C18 15.9449 18 15.4223 18 14.3772V8.68327C18 8.36117 18 8.20013 17.8792 8.10006C17.7584 8 17.5639 8 17.175 8Z" fill="#AA5DDD"/>
</svg>
