<svg width="22" height="19" viewBox="0 0 22 19" fill="none" xmlns="http://www.w3.org/2000/svg">
<path d="M9.70943 3.78303L7.0614 9.12899V18.1775C7.0614 18.8355 8.53253 19 9.26809 19H18.0948C20.2133 18.342 19.8602 16.8068 19.4189 16.1214C21.1842 15.1345 20.7429 14.0653 20.3015 13.654C22.0669 12.6671 21.6255 11.3238 21.1842 10.7754C22.2434 8.47257 20.7429 7.34855 19.8602 7.0744H13.6815V6.66317C14.5641 3.37335 14.1228 0.49321 11.9161 0.0819822C10.1508 -0.247 9.70943 0.49321 9.70943 0.904437V3.78303Z" fill="#CCD2E3"/>
<path d="M6.17873 18.1853V9.04688H2.47149C0.82383 9.04688 0.137305 10.2653 0 10.8746V16.7231C0 18.1853 1.09844 18.7945 1.64766 18.9163H4.53107C5.84919 18.9163 6.17873 18.429 6.17873 18.1853Z" fill="#CCD2E3"/>
</svg>
