<svg width="81" height="81" viewBox="0 0 81 81" fill="none" xmlns="http://www.w3.org/2000/svg">
<path d="M68.2148 66.3187H14.4258V70.2422H68.2148V66.3187Z" fill="#E9DEEF"/>
<path d="M13.6687 39.9938C15.2764 39.9938 16.5797 38.6905 16.5797 37.0828C16.5797 35.4751 15.2764 34.1719 13.6687 34.1719C12.0611 34.1719 10.7578 35.4751 10.7578 37.0828C10.7578 38.6905 12.0611 39.9938 13.6687 39.9938Z" fill="#E9DEEF"/>
<path d="M65.6859 16.3265H19.6172V55.5609H65.6859V16.3265Z" fill="#E9DEEF"/>
<path d="M65.6859 16.3266H19.6172V55.561H65.6859V16.3266Z" stroke="#5B2077" stroke-width="2" stroke-miterlimit="10"/>
<path d="M19.6172 10.8844V60.6235" stroke="#5B2077" stroke-width="2" stroke-miterlimit="10"/>
<path d="M13.2891 43.0312V54.4219" stroke="#5B2077" stroke-width="2" stroke-miterlimit="10"/>
<path d="M13.2891 18.6047V30.1219" stroke="#5B2077" stroke-width="2" stroke-miterlimit="10"/>
<path d="M25.1875 25.5657V20.7563H29.2375" stroke="#5B2077" stroke-width="2" stroke-miterlimit="10"/>
<path d="M60.4969 46.1953V50.7516H56.3203" stroke="#5B2077" stroke-width="2" stroke-miterlimit="10"/>
<path d="M68.2203 67.0781V69.3562L63.4109 70.2422C63.2844 70.2422 63.2844 70.2422 63.1578 70.2422H17.0891L13.5453 68.5969C13.2922 68.4703 13.2922 68.0906 13.5453 67.964L17.0891 66.3187H63.0312C63.1578 66.3187 63.1578 66.3187 63.2844 66.3187L68.2203 67.0781Z" stroke="#5B2077" stroke-width="2" stroke-miterlimit="10"/>
<path d="M72.6477 60.6235H7.46797C7.34141 60.6235 7.21484 60.4969 7.21484 60.3704V11.2641C7.21484 11.1375 7.34141 11.011 7.46797 11.011H72.6477C72.7742 11.011 72.9008 11.1375 72.9008 11.2641V60.3704C72.9008 60.4969 72.7742 60.6235 72.6477 60.6235Z" stroke="#5B2077" stroke-width="2" stroke-miterlimit="10"/>
<path d="M13.2891 39.361C14.687 39.361 15.8203 38.2277 15.8203 36.8297C15.8203 35.4317 14.687 34.2985 13.2891 34.2985C11.8911 34.2985 10.7578 35.4317 10.7578 36.8297C10.7578 38.2277 11.8911 39.361 13.2891 39.361Z" stroke="#5B2077" stroke-width="2" stroke-miterlimit="10"/>
</svg>
