<svg width="81" height="81" viewBox="0 0 81 81" fill="none" xmlns="http://www.w3.org/2000/svg">
<path d="M73.2805 53.0297H9.74609V60.75H73.2805V53.0297Z" fill="#E9DEEF"/>
<path d="M44.9289 29.8688L54.8008 30.6282L53.7883 39.361L43.4102 31.8938L44.9289 29.8688Z" fill="#E9DEEF"/>
<path d="M58.4719 9.11249H23.4141V33.1594H58.4719V9.11249Z" fill="#E9DEEF"/>
<path d="M62.2734 21.0094H71.7656C72.6516 21.0094 73.2844 21.6422 73.2844 22.5281V59.1047C73.2844 59.9907 72.6516 60.6235 71.7656 60.6235H11.2687C10.3828 60.6235 9.75 59.9907 9.75 59.1047V22.5281C9.75 21.6422 10.3828 21.0094 11.2687 21.0094H18.7359" stroke="#5B2077" stroke-width="2" stroke-miterlimit="10"/>
<path d="M9.62109 52.0172H73.0289" stroke="#5B2077" stroke-width="2" stroke-miterlimit="10"/>
<path d="M25.5703 59.8641V70.6219" stroke="#5B2077" stroke-width="2" stroke-miterlimit="10"/>
<path d="M56.5781 59.8641V70.6219" stroke="#5B2077" stroke-width="2" stroke-miterlimit="10"/>
<path d="M19.875 70.6219H62.2734" stroke="#5B2077" stroke-width="2" stroke-miterlimit="10"/>
<path d="M22.1484 33.1594C22.1484 33.1594 22.275 33.1594 22.1484 33.1594H44.4234L53.4094 40.2469C53.5359 40.3734 53.6625 40.2469 53.6625 40.1203V33.1594H58.3453V7.97345H22.5281C22.4016 7.97345 22.275 8.10001 22.275 8.22657V33.0328H22.1484V33.1594Z" stroke="#5B2077" stroke-width="2" stroke-miterlimit="10"/>
<path d="M27.8438 14.0485H53.5359" stroke="#5B2077" stroke-width="2" stroke-miterlimit="10"/>
<path d="M27.8438 19.6172H53.5359" stroke="#5B2077" stroke-width="2" stroke-miterlimit="10"/>
<path d="M27.8438 25.4391H41.7656" stroke="#5B2077" stroke-width="2" stroke-miterlimit="10"/>
</svg>
